<svg xmlns="http://www.w3.org/2000/svg" version="1.1" xmlns:xlink="http://www.w3.org/1999/xlink" width="512" height="512" x="0" y="0" viewBox="0 0 512 512" style="enable-background:new 0 0 512 512" xml:space="preserve" class=""><g><defs><linearGradient id="a" x1="433.079" x2="78.92" y1="78.921" y2="433.079" gradientUnits="userSpaceOnUse"><stop stop-opacity="1" stop-color="#32de84" offset="0"></stop><stop stop-opacity="1" stop-color="#24a762" offset="0.401"></stop><stop stop-opacity="1" stop-color="#0a9c50" offset="1"></stop></linearGradient></defs><path d="M291.393 256A35.393 35.393 0 1 0 256 291.393 35.433 35.433 0 0 0 291.393 256Zm-60.786 0A25.393 25.393 0 1 1 256 281.393 25.421 25.421 0 0 1 230.607 256Zm236.04-29.1a15.272 15.272 0 0 0-20.764-12.078l-92.942 36.82a15.268 15.268 0 0 0-9.582 12.816 86.691 86.691 0 0 1-11.738 36.142 15.183 15.183 0 0 0 .262 15.923l53.518 84.37a15.272 15.272 0 0 0 23.9 2.432A211.588 211.588 0 0 0 468.627 256a214.976 214.976 0 0 0-1.98-29.1Zm-64.556 169.5a5.209 5.209 0 0 1-4.3 1.574 5.269 5.269 0 0 1-3.947-2.435l-53.519-84.368a5.228 5.228 0 0 1-.1-5.48 96.629 96.629 0 0 0 13.084-40.275 5.309 5.309 0 0 1 3.312-4.469l92.94-36.82a5.274 5.274 0 0 1 4.633.354 5.175 5.175 0 0 1 2.54 3.786A204.826 204.826 0 0 1 458.627 256a201.639 201.639 0 0 1-56.536 140.4Zm30.988-317.479A250.428 250.428 0 1 0 78.92 433.079 250.428 250.428 0 1 0 433.079 78.921ZM256 496.429C123.427 496.429 15.571 388.573 15.571 256S123.427 15.571 256 15.571 496.429 123.427 496.429 256 388.573 496.429 256 496.429Zm25.814-334.009a15.277 15.277 0 0 0 9.215 13.07 88.54 88.54 0 0 1 30.747 22.4 15.146 15.146 0 0 0 11.373 5.135 15.413 15.413 0 0 0 3.834-.486l96.843-24.845a15.29 15.29 0 0 0 9.669-22.038A212.854 212.854 0 0 0 293.486 46.685a15.3 15.3 0 0 0-17.966 16.006Zm5.435-104.62a5.286 5.286 0 0 1 3.536-1.353 5.451 5.451 0 0 1 .949.084c60.4 10.745 113.837 49.569 142.949 103.853a5.291 5.291 0 0 1-3.341 7.626L334.5 192.854a5.216 5.216 0 0 1-5.23-1.587 98.615 98.615 0 0 0-34.245-24.944 5.315 5.315 0 0 1-3.229-4.533l-6.3-99.729a5.237 5.237 0 0 1 1.753-4.261ZM78.173 177.7l96.842 24.843a15.415 15.415 0 0 0 3.835.486 15.145 15.145 0 0 0 11.372-5.135 88.537 88.537 0 0 1 30.747-22.4 15.281 15.281 0 0 0 9.216-13.07l6.294-99.73a15.3 15.3 0 0 0-17.967-16.006A212.854 212.854 0 0 0 68.5 155.658a15.29 15.29 0 0 0 9.67 22.038Zm-.858-17.312c29.112-54.288 82.55-93.113 142.949-103.858a5.451 5.451 0 0 1 .949-.084 5.293 5.293 0 0 1 5.285 5.615L220.2 161.79a5.317 5.317 0 0 1-3.23 4.533 98.605 98.605 0 0 0-34.245 24.944 5.211 5.211 0 0 1-5.229 1.587l-96.839-24.843a5.292 5.292 0 0 1-3.342-7.627Zm212.794 186.48a15.179 15.179 0 0 0-15.05-5.173 88.033 88.033 0 0 1-38.119 0 15.181 15.181 0 0 0-15.049 5.174l-63.734 77.008a15.288 15.288 0 0 0 5.094 23.5 212.989 212.989 0 0 0 185.5 0 15.287 15.287 0 0 0 5.092-23.5Zm57.123 87.878a5.242 5.242 0 0 1-2.85 3.629 202.983 202.983 0 0 1-176.763 0 5.289 5.289 0 0 1-1.758-8.124l63.733-77.007a5.21 5.21 0 0 1 5.174-1.788 98.166 98.166 0 0 0 42.463 0 5.215 5.215 0 0 1 5.175 1.787l63.733 77.007a5.257 5.257 0 0 1 1.093 4.496ZM180.378 300.6a86.725 86.725 0 0 1-11.738-36.137 15.261 15.261 0 0 0-9.583-12.817l-92.941-36.818a15.272 15.272 0 0 0-20.763 12.079A214.909 214.909 0 0 0 43.373 256 211.592 211.592 0 0 0 102.7 403.326 15.121 15.121 0 0 0 113.651 408c.515 0 1.035-.026 1.555-.078a15.217 15.217 0 0 0 11.394-7.027l53.515-84.37a15.177 15.177 0 0 0 .263-15.925Zm-8.707 10.567-53.516 84.368a5.271 5.271 0 0 1-3.949 2.435 5.184 5.184 0 0 1-4.3-1.575A201.639 201.639 0 0 1 53.373 256a204.771 204.771 0 0 1 1.888-27.734 5.175 5.175 0 0 1 2.54-3.787 5.272 5.272 0 0 1 4.632-.354l92.941 36.819a5.3 5.3 0 0 1 3.311 4.469 96.658 96.658 0 0 0 13.084 40.275 5.223 5.223 0 0 1-.098 5.48ZM256 208.5a16.072 16.072 0 1 0-16.071-16.071A16.09 16.09 0 0 0 256 208.5Zm0-22.143a6.072 6.072 0 1 1-6.071 6.072 6.078 6.078 0 0 1 6.071-6.072Zm-60.446 33.886a16.072 16.072 0 1 0 16.071 16.071 16.09 16.09 0 0 0-16.071-16.071Zm0 22.143a6.072 6.072 0 1 1 6.071-6.072 6.079 6.079 0 0 1-6.071 6.072Zm97.729 81.128a16.072 16.072 0 1 0-16.071-16.071 16.089 16.089 0 0 0 16.071 16.071Zm0-22.143a6.072 6.072 0 1 1-6.071 6.072 6.078 6.078 0 0 1 6.071-6.072Zm-74.676 22.143a16.072 16.072 0 1 0-16.071-16.071 16.09 16.09 0 0 0 16.071 16.071Zm0-22.143a6.072 6.072 0 1 1-6.071 6.072 6.079 6.079 0 0 1 6.071-6.072Zm113.93-65.006a16.071 16.071 0 1 0-16.071 16.073 16.089 16.089 0 0 0 16.071-16.073Zm-22.142 0a6.071 6.071 0 1 1 6.071 6.073 6.077 6.077 0 0 1-6.066-6.073Z" style="fill:url(#a)" fill=""></path></g></svg>