<svg xmlns="http://www.w3.org/2000/svg" version="1.1" xmlns:xlink="http://www.w3.org/1999/xlink" width="512" height="512" x="0" y="0" viewBox="0 0 512 512" style="enable-background:new 0 0 512 512" xml:space="preserve" class=""><g><linearGradient id="a" x1="478.19" x2="37.519" y1="10.734" y2="451.404" gradientUnits="userSpaceOnUse"><stop stop-opacity="1" stop-color="#32de84" offset="0"></stop><stop stop-opacity="1" stop-color="#24a762" offset="0.401"></stop><stop stop-opacity="1" stop-color="#0a9c50" offset="1"></stop></linearGradient><path fill="url(#a)" d="M441.208 151.224h-363a5 5 0 0 0-5 5V398.88a5 5 0 0 0 5 5h363a5 5 0 0 0 5-5V156.224a5 5 0 0 0-5-5zm-5 242.656h-353V161.224h353zm54.2-363.738h-29.98V5a5 5 0 0 0-5-5h-73.46a5 5 0 0 0-5 5v25.142H135.032V5a5 5 0 0 0-5-5H56.569a5 5 0 0 0-5 5v25.142h-29.98A17.394 17.394 0 0 0 4.214 47.517v47.394a17.394 17.394 0 0 0 17.375 17.375h2.683v315.532a25.028 25.028 0 0 0 25 25h420.874a25.028 25.028 0 0 0 25-25v-316.2a17.393 17.393 0 0 0 12.64-16.7V47.517a17.394 17.394 0 0 0-17.375-17.375zM386.968 10h63.463v20.142h-63.463zm-325.4 0h63.463v20.142H61.569zm408.578 432.818H49.272a15.016 15.016 0 0 1-15-15V112.286h450.874v315.532a15.016 15.016 0 0 1-15 15zm27.64-347.907a7.383 7.383 0 0 1-7.375 7.375H21.589a7.383 7.383 0 0 1-7.375-7.375V47.517a7.383 7.383 0 0 1 7.375-7.375h468.822a7.383 7.383 0 0 1 7.375 7.375zM117.963 71.429a5 5 0 0 1-5 5H98.3v14.662a5 5 0 0 1-10 0V76.429H73.639a5 5 0 1 1 0-10H88.3V51.767a5 5 0 0 1 10 0v14.662h14.662a5 5 0 0 1 5.001 5zm325.4 0a5 5 0 0 1-5 5h-39.326a5 5 0 0 1 0-10h39.324a5 5 0 0 1 5 5zm-273.511 297a6.761 6.761 0 0 0 8.594-1.352c.08-.093.158-.187.232-.286l66.966-89.325a6.768 6.768 0 0 0-5.259-11.028h-17.654l25.415-71.722a6.77 6.77 0 0 0-6.38-9.028h-48.2a6.8 6.8 0 0 0-6.621 5.359l-19.6 92.055a9.22 9.22 0 0 0 9.017 11.14h13.13l-22.51 66.079a6.76 6.76 0 0 0 2.868 8.11zm30.518-75.111a6.767 6.767 0 0 0-6.362-9.076h-16.685l18.854-88.554h41.014l-25.106 70.856a7.417 7.417 0 0 0 6.991 9.894h14.838l-50.943 67.953zm66.386 75.112a6.762 6.762 0 0 0 8.594-1.354c.08-.093.157-.187.23-.285l66.967-89.324a6.769 6.769 0 0 0-5.26-11.029h-17.653l25.415-71.722a6.77 6.77 0 0 0-6.381-9.028h-48.2a6.8 6.8 0 0 0-6.62 5.359l-19.6 92.055a9.218 9.218 0 0 0 9.016 11.14h13.13l-22.508 66.078a6.758 6.758 0 0 0 2.868 8.112zm30.516-75.11a6.768 6.768 0 0 0-6.361-9.078h-16.684l18.853-88.552h41.02l-25.109 70.858a7.418 7.418 0 0 0 6.993 9.892h14.838l-50.943 67.952z" opacity="1" data-original="url(#a)" class=""></path></g></svg>