<svg xmlns="http://www.w3.org/2000/svg" version="1.1" xmlns:xlink="http://www.w3.org/1999/xlink" width="512" height="512" x="0" y="0" viewBox="0 0 512 512" style="enable-background:new 0 0 512 512" xml:space="preserve"><g><linearGradient id="a" x1="448.012" x2="71.869" y1="58.282" y2="434.425" gradientUnits="userSpaceOnUse"><stop stop-opacity="1" stop-color="#32de84" offset="0"></stop><stop stop-opacity="1" stop-color="#24a762" offset="0.401"></stop><stop stop-opacity="1" stop-color="#0a9c50" offset="1"></stop></linearGradient><path fill="url(#a)" d="m505.312 153.835-15.479-15.479 5.6-5.6a19.15 19.15 0 0 0 0-27.05L412 22.272a19.125 19.125 0 0 0-27.049 0l-5.6 5.6-15.48-15.479a17.288 17.288 0 0 0-24.418 0l-24.268 24.268a239.536 239.536 0 1 0 159.453 172.267l30.674-30.675a17.286 17.286 0 0 0 0-24.418zm-34.106 111.037c0 126.7-103.081 229.783-229.784 229.783S11.639 391.575 11.639 264.872 114.719 35.088 241.422 35.088a229.715 229.715 0 0 1 65.778 9.561L288.747 63.1a17.277 17.277 0 0 0-.256 24.134l-21 21a14.084 14.084 0 0 0-3.228 14.819 5 5 0 0 0 4.007 3.214 132.285 132.285 0 0 1 113.019 114.155 5 5 0 0 0 1.424 2.9l6.753 6.753a13.991 13.991 0 0 0 2.824 2.165 14.919 14.919 0 0 0 3.975 7.124L430.7 293.8a15 15 0 1 0 21.214-21.213l-32.547-32.548 10.96-10.959a17.272 17.272 0 0 0 24.282-.123l11.649-11.649a231.287 231.287 0 0 1 4.948 47.564zm-127.454-122.35 31.432 31.431a11.418 11.418 0 0 0 16.151 0l5.253-5.251c5.458-5.458 14.355-5.842 19.833-.857a14.106 14.106 0 0 1 .5 20.424l-5.633 5.634a11.419 11.419 0 0 0 0 16.152l11.961 11.962-20.991 20.991a4.046 4.046 0 0 1-5.718 0l-5.558-5.556a142.318 142.318 0 0 0-117.42-120.491 4.016 4.016 0 0 1 1-1.652l20.992-20.991 12.1 12.1a11.419 11.419 0 0 0 16.152 0l5.252-5.252c5.457-5.458 14.355-5.843 19.833-.857a14.107 14.107 0 0 1 .5 20.425l-5.634 5.634a11.422 11.422 0 0 0 0 16.152zm68.542 104.591 32.547 32.546a5 5 0 0 1-7.072 7.072l-33.445-33.446a13.942 13.942 0 0 0 5-3.206zm85.947-75.931-50.7 50.706a7.274 7.274 0 0 1-10.276 0l-18.9-18.9a1.421 1.421 0 0 1 0-2.01l5.634-5.634a24.018 24.018 0 0 0-16.872-41.067 24.879 24.879 0 0 0-17.6 7.357l-5.253 5.253a1.421 1.421 0 0 1-2.01 0l-31.441-31.437a1.42 1.42 0 0 1 0-2.009l5.633-5.634a24.107 24.107 0 0 0-.839-34.892 24.351 24.351 0 0 0-33.634 1.185l-5.252 5.252a1.418 1.418 0 0 1-2.009 0l-18.9-18.9a7.275 7.275 0 0 1 0-10.276l50.706-50.7a7.273 7.273 0 0 1 10.275 0l19.015 19.014a5 5 0 0 0 7.071 0l9.137-9.137a9.126 9.126 0 0 1 12.907 0l83.434 83.433a9.139 9.139 0 0 1 0 12.908l-9.136 9.137a5 5 0 0 0 0 7.071l19.014 19.015a7.273 7.273 0 0 1-.004 10.265zM382.737 52.42a21.7 21.7 0 1 0 21.7 21.7 21.721 21.721 0 0 0-21.7-21.7zm0 33.392a11.7 11.7 0 1 1 11.7-11.7 11.709 11.709 0 0 1-11.7 11.7zm52.957 19.565a21.7 21.7 0 1 0 21.7 21.7 21.721 21.721 0 0 0-21.7-21.7zm0 33.391a11.7 11.7 0 1 1 11.7-11.7 11.709 11.709 0 0 1-11.7 11.7zm-210.383-24.353a14.953 14.953 0 0 0 10.607-4.386L270.352 75.6a15 15 0 1 0-21.213-21.214l-34.434 34.429a14.993 14.993 0 0 0 10.606 25.6zm-3.535-18.528 34.434-34.434a5 5 0 1 1 7.071 7.071l-34.434 34.434a5 5 0 1 1-7.071-7.071zm-85.953 282.367h-48.7a15 15 0 1 0 0 30h48.7a15 15 0 0 0 0-30zm0 20h-48.7a5 5 0 1 1 0-10h48.7a5 5 0 0 1 0 10zM369.8 355.471a15.016 15.016 0 0 0-15 15v48.7a15 15 0 1 0 30 0v-48.7a15.016 15.016 0 0 0-15-15zm5 63.7a5 5 0 1 1-10 0v-48.7a5 5 0 0 1 10 0zm-133.378-291.01a136.058 136.058 0 0 0-85.745 30.318 5.015 5.015 0 0 0-.609.408 137.634 137.634 0 0 0-12 11.035 137.397 137.397 0 0 0-8.791 10.049 4.947 4.947 0 0 0-.3.466 136.042 136.042 0 0 0-29.263 84.435c0 75.383 61.328 136.711 136.711 136.711s136.71-61.328 136.71-136.711S316.8 128.161 241.422 128.161zm125.1 116.561h-63.159a64.79 64.79 0 0 0-4.769-11.035l44.437-44.437a126.1 126.1 0 0 1 23.493 55.472zM259.8 139.5a126.031 126.031 0 0 1 55.8 22.706l-44.627 44.637A64.6 64.6 0 0 0 259.8 202.4zm-38.525.272v63.161a64.632 64.632 0 0 0-11.035 4.769l-44.44-44.439a126.1 126.1 0 0 1 55.472-23.493zM138.754 190.7l44.637 44.627a64.6 64.6 0 0 0-4.44 11.169h-62.9a126.031 126.031 0 0 1 22.703-55.796zm-22.434 94.32h63.16a64.457 64.457 0 0 0 4.777 11.038L139.813 340.5a126.1 126.1 0 0 1-23.493-55.479zm106.727 105.226a126.031 126.031 0 0 1-55.8-22.706l44.631-44.64a64.617 64.617 0 0 0 11.169 4.44zm38.525-.272v-63.161a64.334 64.334 0 0 0 11.038-4.777l44.435 44.444a126.1 126.1 0 0 1-55.473 23.494zm63.285-29.823-47.912-47.922a5 5 0 0 0-6.2-.692 54.575 54.575 0 0 1-15.426 6.693 5 5 0 0 0-3.742 4.839v68.107q-5.023.4-10.15.407c-2.815 0-5.606-.1-8.375-.284V323.48a5 5 0 0 0-3.889-4.875 54.649 54.649 0 0 1-15.628-6.2 5 5 0 0 0-6.074.774l-48.122 48.132a127.851 127.851 0 0 1-13.191-13.007l47.916-47.904a5 5 0 0 0 .693-6.206 54.531 54.531 0 0 1-6.693-15.424 5 5 0 0 0-4.839-3.744h-68.107q-.4-5.023-.407-10.149c0-2.815.1-5.606.284-8.375h67.819a5 5 0 0 0 4.875-3.89 54.689 54.689 0 0 1 6.2-15.628 5 5 0 0 0-.774-6.073l-48.135-48.127a127.753 127.753 0 0 1 13.007-13.191L205.9 217.5a5 5 0 0 0 6.2.7 54.79 54.79 0 0 1 15.431-6.685 5 5 0 0 0 3.743-4.84v-68.106q5.024-.4 10.15-.408c2.815 0 5.6.1 8.375.284v67.819a5 5 0 0 0 3.889 4.875 54.7 54.7 0 0 1 15.628 6.2 5 5 0 0 0 6.074-.774l48.12-48.135a128.054 128.054 0 0 1 13.19 13.007l-47.912 47.912a5 5 0 0 0-.695 6.2 54.79 54.79 0 0 1 6.685 15.431 5 5 0 0 0 4.84 3.743h68.106q.4 5.024.407 10.15c0 2.815-.1 5.6-.283 8.375H300.03a5 5 0 0 0-4.875 3.89 54.718 54.718 0 0 1-6.2 15.628 5 5 0 0 0 .773 6.073l48.133 48.121a127.761 127.761 0 0 1-13.004 13.191zm41.938-76.9a126.03 126.03 0 0 1-22.705 55.8l-44.637-44.626a64.61 64.61 0 0 0 4.44-11.17zm-280.216 8.338a15.016 15.016 0 0 0 0-21.213l-34.434-34.435a15 15 0 1 0-21.213 21.214l34.433 34.434a15 15 0 0 0 21.214 0zM38 250.084a5 5 0 1 1 7.071-7.071l34.434 34.433a5 5 0 0 1-7.072 7.072zm75.037-75.811a15.017 15.017 0 0 0 15-15v-48.7a15 15 0 1 0-30 0v48.7a15.017 15.017 0 0 0 15.003 15zm-5-63.7a5 5 0 1 1 10 0v48.7a5 5 0 0 1-10 0zm138.888 309.142-34.434 34.433a15 15 0 0 0 21.214 21.213l34.433-34.432a15 15 0 1 0-21.213-21.214zm14.143 14.141-34.433 34.434a5 5 0 0 1-7.072-7.072L254 426.786a5 5 0 1 1 7.072 7.07z" opacity="1" data-original="url(#a)"></path></g></svg>