<svg xmlns="http://www.w3.org/2000/svg" version="1.1" xmlns:xlink="http://www.w3.org/1999/xlink" width="512" height="512" x="0" y="0" viewBox="0 0 24 24" style="enable-background:new 0 0 512 512" xml:space="preserve"><g><switch><g><g fill="#02bc7d"><path d="M9.7 11.3c-.4-.4-1-.4-1.4 0s-.4 1 0 1.4l3 3c.2.2.4.3.7.3s.5-.1.7-.3l7-8c.3-.5.3-1.1-.2-1.4-.4-.3-1-.3-1.3.1L12 13.5z" fill="#a9a9a9" opacity="1" data-original="#02bc7d"></path><path d="M21 11c-.6 0-1 .4-1 1 0 4.4-3.6 8-8 8s-8-3.6-8-8c0-2.1.8-4.1 2.3-5.6C7.8 4.8 9.8 4 12 4c.6 0 1.3.1 1.9.2.5.2 1.1-.1 1.3-.7s-.2-1-.7-1.2h-.1c-.8-.2-1.6-.3-2.4-.3C6.5 2 2 6.5 2 12.1c0 2.6 1.1 5.2 2.9 7 1.9 1.9 4.4 2.9 7 2.9 5.5 0 10-4.5 10-10 .1-.6-.4-1-.9-1z" fill="#a9a9a9" opacity="1" data-original="#02bc7d"></path></g></g></switch></g></svg>