<svg id="Layer_1" enable-background="new 0 0 512 512" height="512" viewBox="0 0 512 512" width="512" xmlns="http://www.w3.org/2000/svg"><g><g><path d="m52.118 96.804h135.764v113.137h-135.764z" fill="#8caac8" transform="matrix(-.707 .707 -.707 -.707 313.304 176.971)"/></g><g><path d="m22.627 106.745 50.746-50.745c12.497-12.497 32.758-12.497 45.255 0l9.372 9.373-96 96-9.373-9.373c-12.496-12.497-12.496-32.758 0-45.255z" fill="#d73228"/></g><g><path d="m48 81.373 25.373-25.373c12.497-12.497 32.758-12.497 45.255 0l9.372 9.373-48 48z" fill="#f04b37"/></g><g><path d="m70.627 85.373c-1.023 0-2.048-.391-2.828-1.172-1.563-1.562-1.563-4.095 0-5.656l14.06-14.06c3.776-3.777 8.799-5.857 14.142-5.857 4.161 0 8.144 1.26 11.517 3.644 1.804 1.274 2.233 3.771.958 5.575-1.274 1.803-3.77 2.235-5.575.958-2.015-1.424-4.4-2.177-6.899-2.177-3.206 0-6.219 1.248-8.485 3.514l-14.06 14.06c-.782.78-1.807 1.171-2.83 1.171z" fill="#ff6955"/></g><g><circle cx="100" cy="133.373" fill="#555a6e" r="12"/></g><g><path d="m432 417.373h-64c-8.837 0-16-7.163-16-16s7.163-16 16-16h48v-73.373l-43.313-43.313c-6.249-6.248-6.249-16.379 0-22.627 6.248-6.248 16.379-6.248 22.627 0l48 48c3.001 3 4.687 7.07 4.687 11.313v96c-.001 8.837-7.164 16-16.001 16z" fill="#463c4b"/></g><g><path d="m400 417.373h-48c-8.837 0-16-7.163-16-16s7.163-16 16-16h32v-73.372l-27.313-27.314c-6.249-6.248-6.249-16.379 0-22.627 6.248-6.248 16.379-6.248 22.627 0l32 32c3.001 3 4.687 7.07 4.687 11.313v96c-.001 8.837-7.164 16-16.001 16z" fill="#555a6e"/></g><g><path d="m436 401.373c-2.209 0-4-1.791-4-4v-88c0-2.209 1.791-4 4-4 2.209 0 4 1.791 4 4v88c0 2.209-1.791 4-4 4z" fill="#555a6e"/></g><g><path d="m404 401.373c-2.209 0-4-1.791-4-4v-88c0-2.209 1.791-4 4-4 2.209 0 4 1.791 4 4v88c0 2.209-1.791 4-4 4z" fill="#73788c"/></g><g><path d="m144 417.373h-64c-8.837 0-16-7.163-16-16v-96c0-4.243 1.686-8.313 4.687-11.313l48-48c6.248-6.248 16.379-6.248 22.627 0 6.249 6.248 6.249 16.379 0 22.627l-43.314 43.313v73.373h48c8.837 0 16 7.163 16 16s-7.163 16-16 16z" fill="#463c4b"/></g><g><path d="m160 417.373h-48c-8.837 0-16-7.163-16-16v-96c0-4.243 1.686-8.313 4.687-11.313l32-32c6.248-6.248 16.379-6.248 22.627 0 6.249 6.248 6.249 16.379 0 22.627l-27.314 27.314v73.372h32c8.837 0 16 7.163 16 16s-7.163 16-16 16z" fill="#555a6e"/></g><g><path d="m324.118 96.804h135.764v113.137h-135.764z" fill="#8caac8" transform="matrix(.707 .707 -.707 .707 223.265 -232.264)"/></g><g><path d="m366.343 67.431h11.314v67.882h-11.314z" fill="#aac3d7" transform="matrix(.707 .707 -.707 .707 180.638 -233.352)"/></g><g><path d="m134.343 67.431h11.314v67.882h-11.314z" fill="#aac3d7" transform="matrix(-.707 .707 -.707 -.707 310.676 74.059)"/></g><g><path d="m300.118 154.745h135.764v45.255h-135.764z" fill="#555a6e" transform="matrix(.707 .707 -.707 .707 233.206 -208.264)"/></g><g><path d="m76.118 154.745h135.764v45.255h-135.764z" fill="#555a6e" transform="matrix(-.707 .707 -.707 -.707 371.245 200.971)"/></g><g><path d="m489.373 106.745-50.746-50.745c-12.497-12.497-32.758-12.497-45.255 0l-9.372 9.373 96 96 9.373-9.373c12.496-12.497 12.496-32.758 0-45.255z" fill="#d73228"/></g><g><path d="m464 81.373-25.373-25.373c-12.497-12.497-32.758-12.497-45.255 0l-9.372 9.373 48 48z" fill="#f04b37"/></g><g><path d="m441.373 85.373c-1.023 0-2.048-.391-2.828-1.172l-14.06-14.06c-2.267-2.266-5.279-3.514-8.485-3.514-2.499 0-4.885.753-6.899 2.177-1.805 1.274-4.301.845-5.575-.958-1.275-1.805-.846-4.301.958-5.575 3.373-2.384 7.355-3.644 11.517-3.644 5.343 0 10.365 2.08 14.142 5.857l14.06 14.06c1.563 1.562 1.563 4.095 0 5.656-.782.782-1.806 1.173-2.83 1.173z" fill="#ff6955"/></g><g><path d="m368 145.373h-224c-17.673 0-32 14.327-32 32v160l32 32v64c0 17.673 14.327 32 32 32h160c17.673 0 32-14.327 32-32v-64l32-32v-160c0-17.674-14.327-32-32-32z" fill="#aac3d7"/></g><g><path d="m368 369.373h-224l-32-32h288z" fill="#8caac8"/></g><g><path d="m136 335.431c-4.418 0-8-3.582-8-8v-150.058c0-8.822 7.178-16 16-16h208c4.418 0 8 3.582 8 8s-3.582 8-8 8h-208v150.059c0 4.417-3.582 7.999-8 7.999z" fill="#d7e6f0"/></g><g><circle cx="412" cy="133.373" fill="#555a6e" r="12"/></g><g><g><g><path d="m259.311 388.898h131.705v15.999h-131.705z" fill="#463c4b" transform="matrix(.983 -.183 .183 .983 -67.22 66.301)"/></g><g><path d="m245.717 334.666h131.694v15.999h-131.694z" fill="#463c4b" transform="matrix(.954 -.301 .301 .954 -88.673 109.637)"/></g><g><path d="m232.776 323.405h123.911v16h-123.911z" fill="#463c4b" transform="matrix(.25 -.968 .968 .25 -99.832 533.928)"/></g><g><path d="m209.268 269.449h16v123.911h-16z" fill="#463c4b" transform="matrix(.968 -.25 .25 .968 -75.969 64.859)"/></g></g><g><circle cx="256" cy="257.373" fill="#555a6e" r="64"/></g><g><circle cx="256" cy="257.373" fill="#d7e6f0" r="16"/></g><g><circle cx="256" cy="217.373" fill="#463c4b" r="8"/></g><g><circle cx="256" cy="297.373" fill="#463c4b" r="8"/></g><g><circle cx="227.716" cy="229.088" fill="#463c4b" r="8"/></g><g><circle cx="284.284" cy="285.657" fill="#463c4b" r="8"/></g><g><circle cx="216" cy="257.373" fill="#463c4b" r="8"/></g><g><circle cx="296" cy="257.373" fill="#463c4b" r="8"/></g><g><circle cx="227.716" cy="285.657" fill="#463c4b" r="8"/></g><g><circle cx="284.284" cy="229.088" fill="#463c4b" r="8"/></g><g><circle cx="256" cy="385.373" fill="#555a6e" r="32"/></g><g><circle cx="256" cy="385.373" fill="#d7e6f0" r="16"/></g><g><circle cx="384" cy="353.373" fill="#d7e6f0" r="40"/></g><g><circle cx="384" cy="353.373" fill="#8caac8" r="16"/></g></g><g><path d="m256 433.373c-8.837 0-16 7.163-16 16v16h32v-16c0-8.837-7.163-16-16-16z" fill="#8caac8"/></g><g><path d="m256 177.373c-8.837 0-16-7.163-16-16v-16h32v16c0 8.836-7.163 16-16 16z" fill="#8caac8"/></g><g><path d="m328 177.373c-8.837 0-16-7.163-16-16v-16h32v16c0 8.836-7.163 16-16 16z" fill="#8caac8"/></g><g><path d="m184 177.373c-8.837 0-16-7.163-16-16v-16h32v16c0 8.836-7.163 16-16 16z" fill="#8caac8"/></g><g><path d="m200 433.373c-8.837 0-16 7.163-16 16v16h32v-16c0-8.837-7.163-16-16-16z" fill="#8caac8"/></g><g><path d="m312 433.373c-8.837 0-16 7.163-16 16v16h32v-16c0-8.837-7.163-16-16-16z" fill="#8caac8"/></g><g><path d="m76 401.373c2.209 0 4-1.791 4-4v-88c0-2.209-1.791-4-4-4-2.209 0-4 1.791-4 4v88c0 2.209 1.791 4 4 4z" fill="#555a6e"/></g><g><path d="m108 401.373c2.209 0 4-1.791 4-4v-88c0-2.209-1.791-4-4-4-2.209 0-4 1.791-4 4v88c0 2.209 1.791 4 4 4z" fill="#73788c"/></g><g><path d="m296 113.373h-80c-4.418 0-8-3.582-8-8v-32c0-4.418 3.582-8 8-8h80c4.418 0 8 3.582 8 8v32c0 4.418-3.582 8-8 8z" fill="#5f7dbe"/></g><g><path d="m296 113.373h-40v-32c0-4.418 3.582-8 8-8h40v32c0 4.418-3.582 8-8 8z" fill="#5055a5"/></g><g><path d="m232 73.373c-4.418 0-8 3.582-8 8v32h16v-32c0-4.419-3.582-8-8-8z" fill="#5055a5"/></g><g><path d="m272 137.373h-32c-8.837 0-16-7.163-16-16v-8h64v8c0 8.836-7.163 16-16 16z" fill="#463c4b"/></g><g><path d="m240 137.373h32v8h-32z" fill="#463c4b"/></g></g></svg>