<svg id="Layer_1" enable-background="new 0 0 512 512" height="512" viewBox="0 0 512 512" width="512" xmlns="http://www.w3.org/2000/svg"><g><g><path d="m120 248h-32v-88c0-4.243 1.686-8.313 4.687-11.313l56-56c3-3.001 7.07-4.687 11.313-4.687h88v32h-81.373l-46.627 46.627z" fill="#463c4b"/></g><g><path d="m120 488h272c17.673 0 32-14.327 32-32v-336c0-17.673-14.327-32-32-32h-146.745c-8.487 0-16.626 3.371-22.627 9.373l-125.255 125.254c-6.002 6.002-9.373 14.141-9.373 22.628v210.745c0 17.673 14.327 32 32 32z" fill="#463c4b"/></g><g><path d="m328 120c0-17.673-14.327-32-32-32h-50.745c-8.487 0-16.626 3.372-22.627 9.373l-125.255 125.254c-6.002 6.001-9.373 14.141-9.373 22.628v210.745c0 17.673 14.327 32 32 32h176c17.673 0 32-14.327 32-32z" fill="#555a6e"/></g><g><path d="m136 424v-165.491c0-4.243 1.686-8.313 4.686-11.314l106.509-106.509c3.001-3.001 7.07-4.686 11.314-4.686h13.491c4.418 0 8 3.582 8 8v280c0 8.837-7.163 16-16 16h-112c-8.837 0-16-7.163-16-16z" fill="#d7e6f0"/></g><g><path d="m384 72h-112c-4.418 0-8-3.582-8-8v-32c0-4.418 3.582-8 8-8h112c4.418 0 8 3.582 8 8v32c0 4.418-3.582 8-8 8z" fill="#f04b37"/></g><g><path d="m384 72h-56v-32c0-4.418 3.582-8 8-8h56v32c0 4.418-3.582 8-8 8z" fill="#d73228"/></g><g><path d="m280 72h96v16h-96z" fill="#463c4b"/></g><g><g><path d="m218.458 253.154c-2.497-3.252-6.358-5.154-10.458-5.154-4.1 0-7.961 1.902-10.458 5.154-10.463 13.627-37.542 51.18-37.542 74.846 0 26.51 21.49 48 48 48s48-21.49 48-48c0-23.666-27.079-61.219-37.542-74.846z" fill="#f5871e"/></g><g><path d="m184 336c-4.418 0-8-3.582-8-8 0-10.553 9.514-30.422 25.45-53.149 2.535-3.618 7.526-4.493 11.143-1.957s4.494 7.525 1.957 11.143c-16.428 23.429-22.55 39.4-22.55 43.963 0 4.418-3.582 8-8 8z" fill="#fabe19"/></g></g></g></svg>