<svg xmlns="http://www.w3.org/2000/svg" version="1.1" xmlns:xlink="http://www.w3.org/1999/xlink" width="512" height="512" x="0" y="0" viewBox="0 0 64 64" style="enable-background:new 0 0 512 512" xml:space="preserve" class=""><g><path d="M29.929 34.629a1 1 0 0 0-1.858 0l-3.828 9.592A5.343 5.343 0 0 0 24 45.817c0 1.933 1.017 3.676 2.655 4.55l.154.082a4.65 4.65 0 0 0 4.38 0l.155-.083C32.983 49.493 34 47.75 34 45.817a5.38 5.38 0 0 0-.269-1.668zm.476 13.973-.155.083h-.001a2.622 2.622 0 0 1-2.499 0l-.154-.082c-.97-.519-1.596-1.612-1.596-2.786 0-.341.051-.677.126-.926L29 37.695l2.849 7.124c.1.321.151.657.151.998 0 1.174-.626 2.267-1.595 2.785z" fill="#fd5c63" opacity="1" data-original="#000000" class=""></path><path d="M15 63h34c1.654 0 3-1.346 3-3V29.576a5 5 0 0 0-.203-1.411l-3.993-13.576A5.028 5.028 0 0 0 43.007 11h-10.35c-1.336 0-2.592.52-3.536 1.464l-.621.622-1.5-1.5V10h1a1 1 0 0 0 1-1V2a1 1 0 0 0-1-1H13a1 1 0 0 0-1 1v7a1 1 0 0 0 1 1h1v1.586l-1.707 1.707A.997.997 0 0 0 12 14v46c0 1.654 1.346 3 3 3zm35-7h-4a1.001 1.001 0 0 1 0-2h4zm0-9h-4a1.001 1.001 0 0 1 0-2h4zm0-9h-4a1.001 1.001 0 0 1 0-2h4zM30.535 13.878A2.983 2.983 0 0 1 32.657 13h10.35a3.02 3.02 0 0 1 2.879 2.153l3.992 13.575c.081.276.122.562.122.848V34h-4c-1.654 0-3 1.346-3 3s1.346 3 3 3h4v3h-4c-1.654 0-3 1.346-3 3s1.346 3 3 3h4v3h-4c-1.654 0-3 1.346-3 3s1.346 3 3 3h4v2c0 .551-.448 1-1 1H15c-.552 0-1-.449-1-1V30.414zM14 3h13v5H14zm11 7v1h-9v-1zm-9.586 3h10.172L27 14.414v.171l-13 13V22h5v-2h-5v-2h5v-2h-5v-1.586z" fill="#fd5c63" opacity="1" data-original="#000000" class=""></path><path d="M17 60h24a1 1 0 0 0 1-1V30a.999.999 0 0 0-.35-.759l-7-6A.994.994 0 0 0 34 23h-9a.996.996 0 0 0-.707.293l-8 8A.997.997 0 0 0 16 32v27a1 1 0 0 0 1 1zm1-27.586L25.414 25h8.216L40 30.46V58H18zM32.861 20.121l12.569 8.702a1.006 1.006 0 0 0 1.139-.001.998.998 0 0 0 .4-1.065l-2.811-11.243A1.994 1.994 0 0 0 42.219 15H34c-1.103 0-2 .897-2 2v1.476c0 .655.321 1.27.861 1.645zM42.22 17l2.166 8.666L34 18.476 33.999 17zM15 4h2v3h-2zM18 4h2v3h-2zM21 4h2v3h-2zM24 4h2v3h-2z" fill="#fd5c63" opacity="1" data-original="#000000" class=""></path></g></svg>