<svg xmlns="http://www.w3.org/2000/svg" version="1.1" xmlns:xlink="http://www.w3.org/1999/xlink" width="512" height="512" x="0" y="0" viewBox="0 0 512 512" style="enable-background:new 0 0 512 512" xml:space="preserve" class=""><g><path d="M255 160.61c15.12 0 29.61-7.62 40.8-21.45 10.22-12.63 16.08-28.56 16.08-43.72 0-30.54-24.45-53.57-56.88-53.57s-56.88 23-56.88 53.57c0 15.16 5.86 31.09 16.08 43.72 11.19 13.84 25.68 21.45 40.8 21.45zm0-102.24c23.4 0 40.38 15.59 40.38 37.07 0 27-22.09 48.67-40.38 48.67-22.37 0-40.38-26.63-40.38-48.67 0-21.44 16.98-37.07 40.38-37.07zM187.69 239.79l-5.79 82.59a8.25 8.25 0 0 0 7.65 8.81h.58a8.26 8.26 0 0 0 8.23-7.67l5.79-82.52a8.25 8.25 0 1 0-16.46-1.16z" fill="#fd5c63" opacity="1" data-original="#000000" class=""></path><path d="M366.89 331.18a8.49 8.49 0 0 0 7.71-9.18s-8.72-62.53-10-83.51c-2.37-37.67-25.38-67.89-61.33-73.39-12.64-1.94-35.6-3.4-47.6-3.41a474.77 474.77 0 0 0-49 3.39 70 70 0 0 0-43.44 23.55c-11.7 13.51-16.93 30.78-18 49.9-1.2 21-9.15 83.56-9.15 83.56a8.25 8.25 0 1 0 16.4 1.8s8.07-63.24 9.22-84.45c1.64-30.06 19.43-54.22 47.22-58a453.74 453.74 0 0 1 46.73-3.24c11.18 0 33.37 1.42 45.11 3.22a55.35 55.35 0 0 1 33.32 18.22c9.16 10.52 13.13 24.65 14 39.85 1.27 21.24 10.13 84.49 10.13 84.49a8.52 8.52 0 0 0 8.68 7.2z" fill="#fd5c63" opacity="1" data-original="#000000" class=""></path><path d="M313.26 232.14a8.25 8.25 0 0 0-7.66 8.86l5.8 82.58a8.25 8.25 0 0 0 8.22 7.68h.59a8.26 8.26 0 0 0 7.65-8.81l-5.8-82.59a8.27 8.27 0 0 0-8.8-7.72zM307.64 405.88l39.68-38.68a8.25 8.25 0 0 0-4.57-14.07l-54.83-8-24.52-49.65a8.25 8.25 0 0 0-14.8 0l-24.52 49.68-54.83 8a8.25 8.25 0 0 0-4.57 14.07l39.68 38.68-9.36 54.57a8.25 8.25 0 0 0 12 8.7l49-25.78 49 25.78a8.33 8.33 0 0 0 3.84.95 8.26 8.26 0 0 0 8.13-9.65zm-55.48 20.9c-9.58 4.88-38.08 20-38.08 20l7.27-42.41a8.25 8.25 0 0 0-2.37-7.3l-30.81-30 42.58-6.19a8.26 8.26 0 0 0 6.21-4.51l19-38.59 19 38.59a8.26 8.26 0 0 0 6.21 4.51l42.58 6.19-30.81 30a8.25 8.25 0 0 0-2.37 7.3l7.27 42.41s-28.5-15.14-38.08-20a8 8 0 0 0-7.6 0zM482.63 378.21l-40.09-5.83-17.93-36.32a8.24 8.24 0 0 0-14.79 0l-17.93 36.32-40.09 5.83a8.25 8.25 0 0 0-4.57 14.07l29 28.28-6.85 39.92a8.25 8.25 0 0 0 12 8.7l35.85-18.85 35.86 18.85a8.33 8.33 0 0 0 3.84.95 8.26 8.26 0 0 0 8.13-9.65l-6.85-39.92 29-28.28a8.25 8.25 0 0 0-4.57-14.07zm-69.25 55.5c-6.29 3.16-24.91 13.09-24.91 13.09l4.76-27.73a8.25 8.25 0 0 0-2.37-7.3l-20.15-19.64 27.84-4a8.23 8.23 0 0 0 6.21-4.52l12.45-25.22 12.45 25.22a8.27 8.27 0 0 0 6.22 4.52l27.83 4-20.14 19.64a8.23 8.23 0 0 0-2.37 7.3l4.8 27.73s-18.61-9.93-24.9-13.09a8.14 8.14 0 0 0-7.72 0zM160.2 378.21l-40.09-5.83-17.93-36.32a8.24 8.24 0 0 0-14.79 0l-17.93 36.32-40.09 5.83a8.25 8.25 0 0 0-4.57 14.07l29 28.28-6.8 39.92a8.25 8.25 0 0 0 12 8.7l35.86-18.85 35.85 18.85a8.33 8.33 0 0 0 3.84.95 8.26 8.26 0 0 0 8.13-9.65l-6.85-39.92 29-28.28a8.25 8.25 0 0 0-4.57-14.07zM91 433.71 66.05 446.8l4.75-27.73a8.23 8.23 0 0 0-2.37-7.3l-20.14-19.64 27.83-4a8.27 8.27 0 0 0 6.22-4.52l12.45-25.22 12.45 25.22a8.23 8.23 0 0 0 6.21 4.52l27.84 4-20.15 19.64a8.25 8.25 0 0 0-2.37 7.3l4.76 27.73-24.91-13.09a7.3 7.3 0 0 0-7.62 0z" fill="#fd5c63" opacity="1" data-original="#000000" class=""></path></g></svg>