<svg xmlns="http://www.w3.org/2000/svg" version="1.1" xmlns:xlink="http://www.w3.org/1999/xlink" width="512" height="512" x="0" y="0" viewBox="0 0 512 512" style="enable-background:new 0 0 512 512" xml:space="preserve" class=""><g><linearGradient id="a" x1="471.421" x2="40.579" y1="42.445" y2="473.287" gradientUnits="userSpaceOnUse"><stop stop-opacity="1" stop-color="#32de84" offset="0"></stop><stop stop-opacity="1" stop-color="#24a762" offset="0.401"></stop><stop stop-opacity="1" stop-color="#0a9c50" offset="1"></stop></linearGradient><path fill="url(#a)" d="M425.305 213.632A21.058 21.058 0 0 0 404.27 192.6h-28.758a5 5 0 0 0-5 5v59.311a5 5 0 0 0 10 0v-22.246H400.5l15.565 24.9a5 5 0 0 0 8.48-5.3l-13.064-20.894a21.05 21.05 0 0 0 13.824-19.739zm-21.035 11.033h-23.758V202.6h23.758a11.034 11.034 0 1 1 0 22.067zm0-118.336h-28.758a5 5 0 0 0-5 5v59.312a5 5 0 1 0 10 0V148.4h23.758a21.034 21.034 0 1 0 0-42.067zm0 32.067h-23.758v-22.067h23.758a11.034 11.034 0 1 1 0 22.067zm-14.9 226.417-13.86-.016a5 5 0 0 0-5 5v59.986a5 5 0 0 0 5 5l14.751-.015a34.606 34.606 0 0 0 33.929-34.59c.002-18.978-15.881-35.023-34.818-35.365zm.284 59.97h-9.144V374.8h8.246c13.549 0 25.434 11.86 25.434 25.381a24.6 24.6 0 0 1-24.534 24.602zM318.058 82.9a9.832 9.832 0 0 0 9.821-9.821v-3.386h10.552a5 5 0 0 0 5-5v-18.78a5 5 0 0 0-5-5h-10.552V37.53a9.832 9.832 0 0 0-9.821-9.821h-81.386a9.833 9.833 0 0 0-9.821 9.821v35.546a9.833 9.833 0 0 0 9.821 9.821h23.548v14.618h-9.688a5 5 0 0 0-5 5v270.794h-27.363v-49.445a5 5 0 0 0-5-5h-56.943a5 5 0 0 0-5 5v160.427a5 5 0 0 0 5 5h56.943a5 5 0 0 0 5-5v-44.038h43.511a50.854 50.854 0 0 0 50.8-50.8V102.515a5 5 0 0 0-5-5h-9.53V82.9zm15.373-31.984v8.78h-5.552v-8.78zm-96.58-13.2h81.028V72.9h-81.028zm65.625 69.806v281.934a40.843 40.843 0 0 1-40.8 40.8h-48.507a5 5 0 0 0-5 5v44.038h-46.943v-150.43h46.943v49.445a5 5 0 0 0 5 5h37.363a5 5 0 0 0 5-5V107.515h4.688v36.111a5 5 0 0 0 5 5h27.73a5 5 0 0 0 5-5v-36.111zm-14.526 31.104h-17.73V82.9h17.73zm67.891-12.911h-30.516a5 5 0 0 0-5 5v20.54a5 5 0 0 0 5 5h30.516a5 5 0 0 0 5-5v-20.54a5 5 0 0 0-5-5zm-5 20.54h-20.516v-10.54h20.516zm5 65.728h-30.516a5 5 0 0 0-5 5v20.54a5 5 0 0 0 5 5h30.516a5 5 0 0 0 5-5v-20.54a5 5 0 0 0-5-5zm-5 20.54h-20.516v-10.54h20.516zm5 65.729h-30.516a5 5 0 0 0-5 5v20.54a5 5 0 0 0 5 5h30.516a5 5 0 0 0 5-5v-20.54a5 5 0 0 0-5-5zm-5 20.54h-20.516v-10.54h20.516zm5 65.729h-30.516a5 5 0 0 0-5 5v20.54a5 5 0 0 0 5 5h30.516a5 5 0 0 0 5-5v-20.54a5 5 0 0 0-5-5zm-5 20.54h-20.516v-10.54h20.516zM136.227 413.9a19.613 19.613 0 0 1-10.274 20.693 26.489 26.489 0 0 1-12.5 3.119 26.06 26.06 0 0 1-10.14-2.031c-5.746-2.429-9.909-6.857-11.422-12.149a5 5 0 0 1 9.615-2.748c.927 3.242 3.969 4.953 5.7 5.685a16.624 16.624 0 0 0 14.02-.687 9.764 9.764 0 0 0 5.163-10.107c-.956-5.3-6.531-9.031-15.3-10.231-8.526-1.167-14.8-5.841-17.2-12.824a18.045 18.045 0 0 1 4.1-18.3 23.256 23.256 0 0 1 17.545-6.588 23.826 23.826 0 0 1 17.644 8.927 5 5 0 1 1-7.763 6.3 13.95 13.95 0 0 0-10.324-5.239 13.256 13.256 0 0 0-9.928 3.564 7.962 7.962 0 0 0-1.818 8.072c1.151 3.336 4.385 5.53 9.106 6.176 13.136 1.803 22.027 8.668 23.776 18.368zm287.965-129.842v58.928a5 5 0 0 1-9.016 2.978L380.512 299.2v43.787a5 5 0 0 1-10 0v-58.929a5 5 0 0 1 9.017-2.978l34.663 46.765v-43.787a5 5 0 0 1 10 0zm-287.67 175.885a5 5 0 0 1-5 5H96.7a5 5 0 1 1 0-10h34.827a5 5 0 0 1 4.995 5zM91.7 339.637a5 5 0 0 1 5-5h12.414v-12.414a5 5 0 0 1 10 0v12.414h12.413a5 5 0 0 1 0 10h-12.418v12.414a5 5 0 0 1-10 0v-12.414H96.7a5 5 0 0 1-5-5zM425.437 7.018H86.562a25.555 25.555 0 0 0-25.526 25.527v450.643a25.555 25.555 0 0 0 25.526 25.526h338.875a25.555 25.555 0 0 0 25.527-25.526V32.545a25.555 25.555 0 0 0-25.527-25.527zm15.527 476.17a15.544 15.544 0 0 1-15.527 15.526H86.562a15.544 15.544 0 0 1-15.526-15.526V32.545a15.544 15.544 0 0 1 15.526-15.527h338.875a15.544 15.544 0 0 1 15.527 15.527z" opacity="1" data-original="url(#a)" class=""></path></g></svg>