<svg xmlns="http://www.w3.org/2000/svg" version="1.1" xmlns:xlink="http://www.w3.org/1999/xlink" width="512" height="512" x="0" y="0" viewBox="0 0 64 64" style="enable-background:new 0 0 512 512" xml:space="preserve" class=""><g><g data-name="Stroke copy"><path fill="#61686c" d="m58.9 13.59-5.31 5.31-6.71-1.78-1.78-6.71 5.31-5.31a10 10 0 0 0-10.59 13.84L19 39.81a10.06 10.06 0 1 0 4.55 3.94l20.2-20.25a10 10 0 0 0 15.15-9.91zm-42.41 41-5.57-1.5-1.5-5.57 4.09-4.09 5.57 1.5 1.5 5.57z" opacity="1" data-original="#a0abb1" class=""></path><path fill="#fb4b5b" d="m40.857 46.518 5.656-5.656 11.312 11.312a4 4 0 0 1 0 5.656 4 4 0 0 1-5.656 0L40.857 46.518z" opacity="1" data-original="#fb4b5b" class=""></path><path fill="#727a7f" d="m39.432 42.27 2.828-2.828 2.828 2.828-2.828 2.828z" opacity="1" data-original="#c1cdd3" class=""></path><path fill="#61686c" d="m40.15 35.91-.71.71-2.82 2.82-.71.71 2.83 2.83 4.24-4.24z" opacity="1" data-original="#a0abb1" class=""></path><g fill="#c1cdd3"><path d="m32.204 35.038 2.828-2.828 4.404 4.405-2.828 2.828zM12.78 15.61l15.18 15.18 2.83-2.83-15.18-15.18-.71-3.54L7.83 5 5 7.83l4.24 7.07z" fill="#727a7f" opacity="1" data-original="#c1cdd3" class=""></path></g></g></g></svg>