<svg xmlns="http://www.w3.org/2000/svg" version="1.1" xmlns:xlink="http://www.w3.org/1999/xlink" width="512" height="512" x="0" y="0" viewBox="0 0 512 512" style="enable-background:new 0 0 512 512" xml:space="preserve" class=""><g><linearGradient id="a" x1="397.172" x2="56.232" y1="109.081" y2="450.02" gradientUnits="userSpaceOnUse"><stop stop-opacity="1" stop-color="#32de84" offset="0"></stop><stop stop-opacity="1" stop-color="#24a762" offset="0.401"></stop><stop stop-opacity="1" stop-color="#0a9c50" offset="1"></stop></linearGradient><path fill="url(#a)" d="m382.205 221.863-150.148-44.129a4.989 4.989 0 0 0-1.411-.2h-99.441a5 5 0 0 0-5 5v287.755a5 5 0 0 0 5 5H380.8a5 5 0 0 0 5-5V226.66a5 5 0 0 0-3.595-4.797zM375.8 465.289H136.205V187.531h93.722L375.8 230.4zm16.286-355.07-151.768-44.6V19.036a14.768 14.768 0 0 0-14.75-14.75H108.53a14.767 14.767 0 0 0-14.75 14.75v454.326a34.391 34.391 0 0 0 34.353 34.352h255.734a34.391 34.391 0 0 0 34.353-34.352V145.146a36.606 36.606 0 0 0-26.139-34.927zm-288.3-59.08h17.332L113.2 64.356h-9.42zm28.986 0h10.158l-7.911 13.217h-10.164zm21.813 0h10.159l-7.911 13.217h-10.16zm21.813 0h10.152l-7.911 13.217h-10.158zm21.813 0h10.159l-7.911 13.217h-10.16zm21.813 0h10.295v13.217h-18.212zM103.78 19.036a4.756 4.756 0 0 1 4.75-4.75h117.033a4.756 4.756 0 0 1 4.75 4.75v22.1H103.78zm304.44 454.326a24.381 24.381 0 0 1-24.353 24.352H128.133a24.381 24.381 0 0 1-24.353-24.352V74.356h130.813l154.668 45.457a26.55 26.55 0 0 1 18.959 25.333zm-31.2-333.773-131.039-38.512a12.222 12.222 0 0 0-15.668 11.723v26.561a12.291 12.291 0 0 0 8.776 11.727L370.125 189.6a12.313 12.313 0 0 0 3.481.5 12.243 12.243 0 0 0 12.194-12.223v-26.561a12.291 12.291 0 0 0-8.781-11.727zm-1.22 38.288a2.225 2.225 0 0 1-2.851 2.133l-131.04-38.51a2.235 2.235 0 0 1-1.6-2.133V112.8a2.182 2.182 0 0 1 .89-1.779 2.211 2.211 0 0 1 1.318-.449 2.237 2.237 0 0 1 .641.1L374.2 149.183a2.235 2.235 0 0 1 1.6 2.133zM250.328 432.944a62.8 62.8 0 0 0 62.726-62.725c0-49.955-56.178-134.558-58.57-138.135a5 5 0 0 0-4.156-2.221h-.007a5 5 0 0 0-4.158 2.233c-2.391 3.6-58.559 88.714-58.559 138.123a62.8 62.8 0 0 0 62.724 62.725zm.012-188.829c13.127 20.791 52.714 86.759 52.714 126.1a52.725 52.725 0 1 1-105.45 0c-.004-38.915 39.622-105.222 52.736-126.1z" opacity="1" data-original="url(#a)" class=""></path></g></svg>