<svg xmlns="http://www.w3.org/2000/svg" version="1.1" xmlns:xlink="http://www.w3.org/1999/xlink" width="512" height="512" x="0" y="0" viewBox="0 0 256 256" style="enable-background:new 0 0 512 512" xml:space="preserve" class=""><g><path d="M244.067 19.258a2.75 2.75 0 0 0-2.394-1.397h-56.957a2.75 2.75 0 0 0-2.357 1.332l-17.01 28.26-17.01-28.26a2.75 2.75 0 0 0-2.357-1.332H89.025a2.75 2.75 0 0 0-2.356 4.168l37.45 62.217c-3.861 2.438-6.433 6.74-6.433 11.633v21.858a69.171 69.171 0 0 0-17.62 22.482H67.773v5.5l53.471.101c8.332-13.703 23.406-22.875 40.581-22.875 26.168 0 47.458 21.29 47.458 47.458s-21.29 47.457-47.458 47.457-47.457-21.29-47.457-47.457c0-6.826 1.46-13.313 4.065-19.184h-5.968a52.688 52.688 0 0 0-3.597 19.184c0 29.2 23.756 52.957 52.957 52.957s52.957-23.756 52.957-52.957-23.756-52.958-52.957-52.958c-17.991 0-33.913 9.02-43.488 22.774h-12.083c10.733-19.682 31.618-33.066 55.571-33.066 34.876 0 63.25 28.373 63.25 63.25s-28.374 63.25-63.25 63.25c-21.674 0-40.834-10.96-52.236-27.628h-6.546c12.07 19.845 33.905 33.128 58.782 33.128 37.909 0 68.75-30.842 68.75-68.75 0-21.12-9.576-40.044-24.61-52.665V95.879c0-2.642-.752-5.112-2.049-7.21l40.113-66.64c.512-.85.526-1.909.038-2.771zm-38.57 4.103h10.984l-32.817 54.52-5.492-9.124zm-19.227 0h12.808l-24.116 40.063-6.403-10.638zm-41.842 0 42.542 70.677H173.613L131.07 23.361zm-19.777 0 42.542 70.677H156.21l-42.542-70.677zm-30.761 0h13.357l42.543 70.677h-13.358zm34.796 72.518v14.305a68.887 68.887 0 0 0-5.5 3.383V95.88c0-2.898 1.505-5.446 3.77-6.918l2.842 4.72a2.737 2.737 0 0 0-1.112 2.198zm60.778 11.58a68.35 68.35 0 0 0-27.639-5.807 68.35 68.35 0 0 0-27.639 5.808v-8.01c.223.057 55.278.088 55.278.088zm11 6.108a68.905 68.905 0 0 0-5.5-3.383V95.879c0-1.28-.879-2.347-2.063-2.653l-3.37-5.597h2.683c4.55 0 8.25 3.7 8.25 8.25zm-.482-29.026a13.67 13.67 0 0 0-7.768-2.412h-4.687L222.9 23.361h13.907z" fill="#fd5c63" opacity="1" data-original="#000000"></path><path d="M196.222 159.692a2.749 2.749 0 0 0-2.22-1.871l-20.53-2.984-9.18-18.602a2.75 2.75 0 0 0-4.933 0l-9.181 18.602-20.53 2.984a2.749 2.749 0 0 0-1.524 4.69l14.856 14.481-3.507 20.447c-.444 1.04 1.015 4.305 3.99 2.9l18.362-9.655 18.362 9.654c2.61 1.337 4.417-1.65 3.99-2.899l-3.506-20.447 14.856-14.48c.749-.731 1.02-1.824.695-2.82zm-20.426 14.37a2.748 2.748 0 0 0-.79 2.434l2.809 16.381-14.71-7.734a2.75 2.75 0 0 0-2.56 0l-14.71 7.734 2.81-16.38a2.748 2.748 0 0 0-.791-2.434l-11.9-11.6 16.445-2.39a2.75 2.75 0 0 0 2.071-1.505l7.355-14.902 7.355 14.902a2.75 2.75 0 0 0 2.07 1.505l16.447 2.39zM21.828 101.652h8.681v5.5h-8.681zM52.481 101.652h53.66v5.5h-53.66zM37.115 101.652h8.682v5.5h-8.682zM37.228 140.219h8.651v5.5h-8.651zM52.461 140.219h8.651v5.5h-8.651zM12.332 120.936h8.682v5.5h-8.682zM42.986 120.936h53.66v5.5h-53.66zM27.619 120.936h8.682v5.5h-8.682zM26.228 195.025h8.681v5.5h-8.681zM56.881 200.525h53.66v-5.5h-6.976a62.903 62.903 0 0 1-4.99-24.623c0-6.685 1.046-13.13 2.977-19.183h-5.75a68.553 68.553 0 0 0-2.727 19.183 68.401 68.401 0 0 0 4.563 24.623H56.881zM41.515 195.025h8.682v5.5h-8.682zM12.332 214.308h8.682v5.5h-8.682zM42.986 214.308h53.66v5.5h-53.66zM27.619 214.308h8.682v5.5h-8.682z" fill="#fd5c63" opacity="1" data-original="#000000"></path></g></svg>