<svg xmlns="http://www.w3.org/2000/svg" version="1.1" xmlns:xlink="http://www.w3.org/1999/xlink" width="512" height="512" x="0" y="0" viewBox="0 0 512 512" style="enable-background:new 0 0 512 512" xml:space="preserve" class=""><g><linearGradient id="a" x1="481.921" x2="28.478" y1="29.635" y2="483.078" gradientUnits="userSpaceOnUse"><stop stop-opacity="1" stop-color="#32de84" offset="0"></stop><stop stop-opacity="1" stop-color="#24a762" offset="0.401"></stop><stop stop-opacity="1" stop-color="#0a9c50" offset="1"></stop></linearGradient><path fill="url(#a)" d="M48.5 420.822a29.865 29.865 0 1 0 42.236 0 29.9 29.9 0 0 0-42.236 0zm35.165 35.164a19.856 19.856 0 1 1 0-28.093 19.887 19.887 0 0 1-.002 28.093zm398.727-425.88a62.37 62.37 0 0 0-91.286 3.315L345.44 86.248a5 5 0 0 0 .248 6.806l12.981 12.982-15.535 15.535-15.306-15.307a19.377 19.377 0 0 0-27.4 27.4l15.306 15.307-19.264 19.264-12.81-12.81a19.377 19.377 0 0 0-27.4 27.4l12.81 12.81-19.27 19.271-10.314-10.314a19.377 19.377 0 1 0-27.4 27.4l10.314 10.317-8.471 8.471a5 5 0 0 0 0 7.072l4.911 4.911-7.257 7.257-16.264-16.264a19.377 19.377 0 0 0-27.4 27.4l16.264 16.264-19.264 19.264-13.768-13.768a19.377 19.377 0 0 0-27.4 27.4l13.768 13.767-12.779 12.777-4.912-4.912a5 5 0 0 0-7.071 0l-32.778 32.778a58.177 58.177 0 1 0 46.852 46.85l32.776-32.776a5 5 0 0 0 0-7.071l-4.911-4.911 12.77-12.77 12.458 12.458a19.377 19.377 0 0 0 27.4-27.4l-12.458-12.458 19.264-19.265 15.282 15.282a19.376 19.376 0 1 0 27.4-27.4l-15.282-15.282 7.257-7.257 4.911 4.911a5 5 0 0 0 7.071 0l8.473-8.471 9.658 9.658a19.377 19.377 0 0 0 27.4-27.4l-9.659-9.659 19.265-19.264 12.494 12.473a19.377 19.377 0 1 0 27.4-27.4l-12.483-12.483 19.264-19.264 15.307 15.306a19.377 19.377 0 1 0 27.4-27.4l-15.307-15.307 15.536-15.534 15.015 15.008a5 5 0 0 0 6.887.175l52.681-47.583a62.369 62.369 0 0 0 2.3-90.386zm-378.709 445.9a48.155 48.155 0 1 1 0-68.133 48.23 48.23 0 0 1 0 68.133zm20.026-55.451A58.041 58.041 0 0 0 91 387.847l25.292-25.292L149 395.264zm23.916-40.81-15.814-15.814 12.769-12.769 15.814 15.814zm52.63-.311a9.386 9.386 0 0 1-13.26 0l-56.183-56.183a9.377 9.377 0 0 1 13.261-13.26l56.182 56.182a9.386 9.386 0 0 1 0 13.261zM187.8 339.573l-15.814-15.814 19.265-19.265 15.814 15.814zm61.95-17.243a9.377 9.377 0 1 1-13.261 13.26l-61.5-61.5a9.377 9.377 0 0 1 13.261-13.26zm-15.282-29.424-15.818-15.814 7.257-7.258 15.815 15.815zm22.775-5.881-32.709-32.709 4.937-4.936 32.708 32.708zm42 4.722a9.386 9.386 0 0 1-13.26 0l-66.824-66.823a9.377 9.377 0 0 1 13.261-13.261l66.823 66.823a9.388 9.388 0 0 1-.005 13.261zm-9.659-37.062-32.708-32.708 19.264-19.265 32.709 32.709zm61.9-13.412a9.376 9.376 0 0 1-16.007 6.63l-72.152-72.143a9.377 9.377 0 0 1 13.261-13.26l72.143 72.143a9.316 9.316 0 0 1 2.747 6.63zm-15.229-33.255-32.716-32.708 19.261-19.265 32.709 32.708zm61.974-3.958a9.389 9.389 0 0 1-13.261 0L307.5 126.6a9.377 9.377 0 0 1 13.261-13.262l77.46 77.462a9.389 9.389 0 0 1 0 13.26zm-15.307-42.71-32.708-32.708 15.535-15.535 32.708 32.708zm107.721-85.811a51.9 51.9 0 0 1-17.249 37.532l-49.151 44.4-68.2-68.2 42.625-49.31a52.37 52.37 0 0 1 91.972 35.578zm-54.456-34.874a34.705 34.705 0 1 0 24.539 10.165 34.477 34.477 0 0 0-24.539-10.165zm17.468 52.173a24.7 24.7 0 1 1 7.236-17.468 24.541 24.541 0 0 1-7.236 17.468z" opacity="1" data-original="url(#a)"></path></g></svg>