<svg xmlns="http://www.w3.org/2000/svg" version="1.1" xmlns:xlink="http://www.w3.org/1999/xlink" width="512" height="512" x="0" y="0" viewBox="0 0 100 100" style="enable-background:new 0 0 512 512" xml:space="preserve" class=""><g><path fill-rule="evenodd" d="M67.317 2.5H32.683c-4.216 0-7.666 3.45-7.666 7.665v79.67c0 4.216 3.45 7.665 7.666 7.665h34.634c4.216 0 7.666-3.45 7.666-7.665v-79.67c0-4.216-3.45-7.665-7.666-7.665zM62.68 5.626h2.225a.893.893 0 0 1 0 1.786H62.68a.893.893 0 0 1 0-1.786zm-17.795 0h10.232a.893.893 0 1 1 0 1.786H44.884a.893.893 0 0 1 0-1.786zm11.723 85.076c0 1.31-1.07 2.38-2.38 2.38h-8.454a2.387 2.387 0 0 1-2.38-2.38c0-1.31 1.07-2.38 2.38-2.38h8.454c1.31 0 2.38 1.07 2.38 2.38zm15.089-6.695H28.305V12.435h43.39v71.572z" clip-rule="evenodd" fill="#002d62" opacity="1" data-original="#000000" class=""></path></g></svg>