<svg id="Layer_1" enable-background="new 0 0 512 512" height="512" viewBox="0 0 512 512" width="512" xmlns="http://www.w3.org/2000/svg"><g><g><path d="m232 280h48v104h-48z" fill="#463c4b"/></g><g><path d="m128 232h256v48h-256z" fill="#463c4b"/></g><g><circle cx="256" cy="256" fill="#555a6e" r="50.667"/></g><g><circle cx="256" cy="256" fill="#5f7dbe" r="32"/></g><g><path d="m280 264c-4.418 0-8-3.582-8-8 0-8.822-7.178-16-16-16s-16 7.178-16 16c0 4.418-3.582 8-8 8s-8-3.582-8-8c0-17.645 14.355-32 32-32s32 14.355 32 32c0 4.418-3.582 8-8 8z" fill="#7d9bdc"/></g><g><path d="m256 32c-123.712 0-224 100.288-224 224s100.288 224 224 224 224-100.288 224-224-100.288-224-224-224zm32 380.796v-20.796c0-4.418-3.582-8-8-8h-48c-4.418 0-8 3.582-8 8v20.796c-62.691-12.726-112.07-62.105-124.796-124.796h20.796c4.418 0 8-3.582 8-8v-48c0-4.418-3.582-8-8-8h-20.796c14.825-73.031 79.39-128 156.796-128s141.971 54.969 156.796 128h-20.796c-4.418 0-8 3.582-8 8v48c0 4.418 3.582 8 8 8h20.796c-12.726 62.691-62.105 112.07-124.796 124.796z" fill="#555a6e"/></g><g><circle cx="168" cy="256" fill="#d7e6f0" r="8"/></g><g><circle cx="344" cy="256" fill="#d7e6f0" r="8"/></g><g><circle cx="256" cy="344" fill="#d7e6f0" r="8"/></g><g><path d="m464 264c-4.418 0-8-3.582-8-8 0-110.28-89.72-200-200-200s-200 89.72-200 200c0 4.418-3.582 8-8 8s-8-3.582-8-8c0-57.696 22.468-111.938 63.265-152.735 40.798-40.797 95.04-63.265 152.735-63.265s111.938 22.468 152.735 63.265 63.265 95.039 63.265 152.735c0 4.418-3.582 8-8 8z" fill="#73788c"/></g></g></svg>