<svg id="Layer_1" enable-background="new 0 0 512 512" height="512" viewBox="0 0 512 512" width="512" xmlns="http://www.w3.org/2000/svg"><g><g><path d="m279.993 308.003c-1.661 0-3.348-.347-4.959-1.078l-88-40c-6.033-2.743-8.701-9.857-5.959-15.891 2.743-6.034 9.854-8.698 15.891-5.959l88 40c6.033 2.743 8.701 9.857 5.959 15.891-2.011 4.423-6.371 7.037-10.932 7.037z" fill="#5055a5"/></g><g><path d="m327.993 260.003c-1.661 0-3.348-.347-4.959-1.078l-88-40c-6.033-2.743-8.701-9.857-5.959-15.891s9.854-8.7 15.891-5.959l88 40c6.033 2.743 8.701 9.857 5.959 15.891-2.011 4.423-6.371 7.037-10.932 7.037z" fill="#5055a5"/></g><g><path d="m375.993 212.003c-1.661 0-3.348-.347-4.959-1.078l-88-40c-6.033-2.743-8.701-9.857-5.959-15.891s9.854-8.699 15.891-5.959l88 40c6.033 2.743 8.701 9.857 5.959 15.891-2.011 4.423-6.371 7.037-10.932 7.037z" fill="#5055a5"/></g><g><path d="m423.993 164.003c-1.661 0-3.348-.347-4.959-1.078l-88-40c-6.033-2.743-8.701-9.857-5.959-15.891 2.743-6.034 9.854-8.699 15.891-5.959l88 40c6.033 2.743 8.701 9.857 5.959 15.891-2.011 4.423-6.371 7.037-10.932 7.037z" fill="#5055a5"/></g><g><path d="m231.993 356.003c-1.661 0-3.348-.347-4.959-1.078l-88-40c-6.033-2.743-8.701-9.857-5.959-15.891s9.854-8.699 15.891-5.959l88 40c6.033 2.743 8.701 9.857 5.959 15.891-2.011 4.423-6.371 7.037-10.932 7.037z" fill="#5055a5"/></g><g><path d="m176 384 116.686-116.686c6.248-6.248 6.248-16.379 0-22.627l-25.373-25.373c-6.248-6.248-16.379-6.248-22.627 0l-116.686 116.686z" fill="#8caac8"/></g><g><path d="m152 360 128-128-12.686-12.686c-6.248-6.248-16.379-6.248-22.627 0l-116.687 116.686z" fill="#d7e6f0"/></g><g><path d="m256.804 164.686h158.392v22.627h-158.392z" fill="#8caac8" transform="matrix(.707 -.707 .707 .707 -26.039 289.137)"/></g><g><path d="m184.007 404.003c-4.561 0-8.921-2.614-10.932-7.037l-40-88c-2.742-6.033-.074-13.147 5.959-15.891 6.033-2.738 13.147-.074 15.891 5.959l40 88c2.742 6.033.074 13.147-5.959 15.891-1.611.731-3.298 1.078-4.959 1.078z" fill="#5f7dbe"/></g><g><path d="m232.007 356.003c-4.561 0-8.921-2.614-10.932-7.037l-40-88c-2.742-6.033-.074-13.147 5.959-15.891 6.032-2.738 13.148-.074 15.891 5.959l40 88c2.742 6.033.074 13.147-5.959 15.891-1.611.731-3.298 1.078-4.959 1.078z" fill="#5f7dbe"/></g><g><path d="m280.007 308.003c-4.561 0-8.921-2.614-10.932-7.037l-40-88c-2.742-6.033-.074-13.147 5.959-15.891 6.032-2.739 13.148-.074 15.891 5.959l40 88c2.742 6.033.074 13.147-5.959 15.891-1.611.731-3.298 1.078-4.959 1.078z" fill="#5f7dbe"/></g><g><path d="m328.007 260.003c-4.561 0-8.921-2.614-10.932-7.037l-40-88c-2.742-6.033-.074-13.147 5.959-15.891 6.033-2.738 13.147-.074 15.891 5.959l40 88c2.742 6.033.074 13.147-5.959 15.891-1.611.731-3.298 1.078-4.959 1.078z" fill="#5f7dbe"/></g><g><path d="m376.007 212.003c-4.561 0-8.921-2.614-10.932-7.037l-40-88c-2.742-6.033-.074-13.147 5.959-15.891 6.033-2.738 13.148-.075 15.891 5.959l40 88c2.742 6.033.074 13.147-5.959 15.891-1.611.731-3.298 1.078-4.959 1.078z" fill="#5f7dbe"/></g><g><path d="m401.373 65.373h45.255v45.255h-45.255z" fill="#8caac8" transform="matrix(-.707 .707 -.707 -.707 786.039 -149.588)"/></g><g><path d="m393.373 68.686h45.255v22.627h-45.255z" fill="#d7e6f0" transform="matrix(-.707 .707 -.707 -.707 766.725 -157.588)"/></g><g><path d="m70.011 363.735h77.31v79.196h-77.31z" fill="#463c4b" transform="matrix(-.707 .707 -.707 -.707 470.705 611.694)"/></g><g><circle cx="80" cy="432" fill="#d7e6f0" r="48"/></g><g><path d="m80 469.5c-20.678 0-37.5-16.822-37.5-37.5s16.822-37.5 37.5-37.5 37.5 16.822 37.5 37.5-16.822 37.5-37.5 37.5zm0-64c-14.612 0-26.5 11.888-26.5 26.5s11.888 26.5 26.5 26.5 26.5-11.888 26.5-26.5-11.888-26.5-26.5-26.5z" fill="#aac3d7"/></g><g><circle cx="80" cy="432" fill="#463c4b" r="16"/></g><g><path d="m192 416c-4.418 4.418-11.582 4.418-16 0l-80-80c-4.418-4.418-4.418-11.582 0-16 4.418-4.418 11.582-4.418 16 0l80 80c4.418 4.418 4.418 11.582 0 16z" fill="#463c4b"/></g><g><path d="m152 360-16 16-40-40c-4.418-4.418-4.418-11.582 0-16 4.418-4.418 11.582-4.418 16 0z" fill="#555a6e"/></g><g><path d="m448 160c-4.418 4.418-11.582 4.418-16 0l-80-80c-4.418-4.418-4.418-11.582 0-16 4.418-4.418 11.582-4.418 16 0l80 80c4.418 4.418 4.418 11.582 0 16z" fill="#463c4b"/></g><g><path d="m408 104-16 16-40-40c-4.418-4.418-4.418-11.582 0-16 4.418-4.418 11.582-4.418 16 0z" fill="#555a6e"/></g><g><circle cx="448" cy="64" fill="#d7e6f0" r="32"/></g><g><circle cx="448" cy="64" fill="#8caac8" r="16"/></g><g><circle cx="448" cy="64" fill="#463c4b" r="8"/></g></g></svg>