<svg id="Layer_1" enable-background="new 0 0 512 512" height="512" viewBox="0 0 512 512" width="512" xmlns="http://www.w3.org/2000/svg"><g><g><path d="m30.667 256c3.682 0 6.667 2.985 6.667 6.667v54.667h-13.334v-54.667c0-3.682 2.985-6.667 6.667-6.667z" fill="#555a6e"/></g><path d="m36 304c-6.627 0-12 5.373-12 12v47.124c0 4.829 1.918 9.461 5.333 12.876v32h64v-104z" fill="#463c4b"/><g><path d="m481.333 256c-3.682 0-6.667 2.985-6.667 6.667v54.667h13.334v-54.667c0-3.682-2.985-6.667-6.667-6.667z" fill="#555a6e"/></g><path d="m476 304h-57.333v104h64v-32c3.415-3.415 5.333-8.046 5.333-12.876v-47.124c0-6.627-5.373-12-12-12z" fill="#463c4b"/><g><path d="m93.333 320c0-8.837 7.163-16 16-16 1.473 0 2.667 1.194 2.667 2.667v53.333c0 8.837-7.163 16-16 16h-2.667z" fill="#555a6e"/></g><g><path d="m256 448c-61.757 0-112-50.243-112-112v-120h224v120c0 61.757-50.243 112-112 112z" fill="#d7e6f0"/></g><g><path d="m304 232h-96v-160c0-17.673 14.327-32 32-32h32c17.673 0 32 14.327 32 32z" fill="#aac3d7"/></g><g><path d="m304 232h-96v-128c0-17.673 14.327-32 32-32h32c17.673 0 32 14.327 32 32z" fill="#d7e6f0"/></g><g><path d="m352 232h-192c0-35.346 28.654-64 64-64h64c35.346 0 64 28.654 64 64z" fill="#f04b37"/></g><g><path d="m336 232h-160c0-26.51 21.49-48 48-48h64c26.51 0 48 21.49 48 48z" fill="#555a6e"/></g><path d="m368 184c-4.243 0-8.313 1.686-11.313 4.686l-43.314 43.314h-114.746l-43.313-43.314c-3-3-7.07-4.686-11.313-4.686h-112.001v32h105.373l22.627 22.627v97.373c0 53.019 42.98 96 96 96 53.02 0 96-42.981 96-96v-97.373l22.627-22.627h105.373v-32z" fill="#463c4b"/><path d="m136 176h-4.686l-29.657-29.657c-1.501-1.5-3.535-2.343-5.657-2.343h-44.687l-13.656-13.657c-3.125-3.125-8.189-3.125-11.314 0-3.124 3.124-3.124 8.189 0 11.313l16 16c1.501 1.501 3.535 2.344 5.657 2.344h44.687l16.513 16.514c-3.035 1.136-5.2 4.055-5.2 7.486v32c0 4.418 3.582 8 8 8h24c4.418 0 8-3.582 8-8v-32c0-4.418-3.582-8-8-8z" fill="#555a6e"/><path d="m485.657 130.343c-3.125-3.125-8.189-3.125-11.314 0l-13.656 13.657h-44.687c-2.122 0-4.156.843-5.657 2.343l-29.657 29.657h-4.686c-4.418 0-8 3.582-8 8v32c0 4.418 3.582 8 8 8h24c4.418 0 8-3.582 8-8v-32c0-3.432-2.165-6.35-5.2-7.486l16.513-16.514h44.687c2.122 0 4.156-.843 5.657-2.343l16-16c3.124-3.124 3.124-8.19 0-11.314z" fill="#555a6e"/><g><path d="m24 224c4.418 0 8-3.582 8-8v-32c0-4.418-3.582-8-8-8-4.418 0-8 3.582-8 8v32c0 4.418 3.582 8 8 8z" fill="#555a6e"/></g><g><path d="m488 224c4.418 0 8-3.582 8-8v-32c0-4.418-3.582-8-8-8-4.418 0-8 3.582-8 8v32c0 4.418 3.582 8 8 8z" fill="#555a6e"/></g><g><path d="m116 192h16c2.209 0 4-1.791 4-4 0-2.209-1.791-4-4-4h-16c-2.209 0-4 1.791-4 4 0 2.209 1.791 4 4 4z" fill="#73788c"/></g><g><path d="m380 192h16c2.209 0 4-1.791 4-4 0-2.209-1.791-4-4-4h-16c-2.209 0-4 1.791-4 4 0 2.209 1.791 4 4 4z" fill="#73788c"/></g><g><circle cx="224" cy="232" fill="#8caac8" r="32"/></g><g><circle cx="224" cy="232" fill="#463c4b" r="16"/></g><g><circle cx="288" cy="232" fill="#8caac8" r="32"/></g><g><circle cx="288" cy="232" fill="#463c4b" r="16"/></g><g><path d="m320 472h-128v-88c0-17.673 14.327-32 32-32h64c17.673 0 32 14.327 32 32z" fill="#555a6e"/></g><g><circle cx="256" cy="304" fill="#555a6e" r="32"/></g><g><path d="m239.029 328.97c-2.048 0-4.095-.781-5.657-2.343-12.476-12.477-12.476-32.778 0-45.254 12.477-12.477 32.777-12.477 45.256 0 3.124 3.124 3.124 8.189 0 11.314-3.125 3.125-8.189 3.124-11.314 0-6.238-6.238-16.389-6.238-22.627 0s-6.238 16.389 0 22.627c3.124 3.124 3.124 8.19-.001 11.314-1.562 1.561-3.61 2.342-5.657 2.342z" fill="#8caac8"/></g><g><circle cx="256" cy="304" fill="#463c4b" r="16"/></g><g><path d="m224 376c4.418 0 8 3.582 8 8v88h-16v-88c0-4.418 3.582-8 8-8z" fill="#73788c"/></g><g><path d="m288 376c4.418 0 8 3.582 8 8v88h-16v-88c0-4.418 3.582-8 8-8z" fill="#73788c"/></g><g><path d="m86.667 248c3.682 0 6.667 2.985 6.667 6.667v49.333h-13.334v-49.333c0-3.682 2.985-6.667 6.667-6.667z" fill="#555a6e"/></g><g><path d="m68 232c3.682 0 6.667 2.985 6.667 6.667v65.333h-13.334v-65.333c0-3.682 2.985-6.667 6.667-6.667z" fill="#555a6e"/></g><g><path d="m49.333 242.667c3.682 0 6.667 2.985 6.667 6.667v54.666h-13.333v-54.667c0-3.682 2.984-6.666 6.666-6.666z" fill="#555a6e"/></g><g><path d="m77.333 360h-37.333c-4.418 0-8-3.582-8-8v-24c0-4.418 3.582-8 8-8h37.333c4.418 0 8 3.582 8 8v24c0 4.418-3.581 8-8 8z" fill="#555a6e"/></g><g><path d="m73.333 336h-29.333c-2.209 0-4-1.791-4-4 0-2.209 1.791-4 4-4h29.333c2.209 0 4 1.791 4 4 0 2.209-1.791 4-4 4z" fill="#73788c"/></g><g><path d="m101.333 472h-80v-56c0-4.418 3.582-8 8-8h64c4.418 0 8 3.582 8 8z" fill="#d7e6f0"/></g><g><path d="m69.333 418.667h32v53.333h-40v-45.333c0-4.419 3.582-8 8-8z" fill="#aac3d7"/></g><g><path d="m418.667 320c0-8.837-7.163-16-16-16-1.473 0-2.667 1.194-2.667 2.667v53.333c0 8.837 7.163 16 16 16h2.667z" fill="#555a6e"/></g><g><path d="m425.333 248c-3.682 0-6.667 2.985-6.667 6.667v49.333h13.334v-49.333c0-3.682-2.985-6.667-6.667-6.667z" fill="#555a6e"/></g><g><path d="m444 232c-3.682 0-6.667 2.985-6.667 6.667v65.333h13.333v-65.333c.001-3.682-2.984-6.667-6.666-6.667z" fill="#555a6e"/></g><g><path d="m462.667 242.667c-3.682 0-6.667 2.985-6.667 6.667v54.666h13.333v-54.667c0-3.682-2.984-6.666-6.666-6.666z" fill="#555a6e"/></g><g><path d="m434.667 360h37.333c4.418 0 8-3.582 8-8v-24c0-4.418-3.582-8-8-8h-37.333c-4.418 0-8 3.582-8 8v24c0 4.418 3.581 8 8 8z" fill="#555a6e"/></g><g><path d="m438.667 336h29.333c2.209 0 4-1.791 4-4 0-2.209-1.791-4-4-4h-29.333c-2.209 0-4 1.791-4 4 0 2.209 1.791 4 4 4z" fill="#73788c"/></g><g><path d="m490.667 472h-80v-56c0-4.418 3.582-8 8-8h64c4.418 0 8 3.582 8 8z" fill="#d7e6f0"/></g><g><path d="m458.667 418.667h32v53.333h-40v-45.333c0-4.419 3.581-8 8-8z" fill="#aac3d7"/></g><g><path d="m69.333 392h24v-16h-24c-4.418 0-8 3.582-8 8 0 4.418 3.582 8 8 8z" fill="#555a6e"/></g><g><path d="m442.667 392h-24v-16h24c4.418 0 8 3.582 8 8 0 4.418-3.582 8-8 8z" fill="#555a6e"/></g></g></svg>