<svg id="Layer_1" enable-background="new 0 0 512 512" height="512" viewBox="0 0 512 512" width="512" xmlns="http://www.w3.org/2000/svg"><g><g><path d="m272 480h-32c-123.712 0-224-100.288-224-224 0-123.712 100.288-224 224-224h32c123.712 0 224 100.288 224 224 0 123.712-100.288 224-224 224z" fill="#463c4b"/></g><g><circle cx="240" cy="256" fill="#555a6e" r="224"/></g><g><path d="m124.381 377.881 28.59-46.459c4.368-7.098 12.106-11.422 20.44-11.422h133.178c8.334 0 16.072 4.324 20.44 11.422l28.59 46.459c32.261-30.613 52.381-73.897 52.381-121.881 0-92.784-75.216-168-168-168s-168 75.216-168 168c0 47.984 20.12 91.268 52.381 121.881z" fill="#d7e6f0"/></g><g><path d="m40 264c-4.418 0-8-3.582-8-8 0-114.691 93.309-208 208-208 4.418 0 8 3.582 8 8s-3.582 8-8 8c-105.869 0-192 86.131-192 192 0 4.418-3.582 8-8 8z" fill="#73788c"/></g><g><path d="m112 256c0 8.84-7.16 16-16 16h-23.24c-.51-5.27-.76-10.6-.76-16s.25-10.73.76-16h23.24c8.84 0 16 7.16 16 16z" fill="#8caac8"/></g><g><path d="m149.49 142.86c6.25 6.25 6.25 16.38 0 22.63s-16.38 6.25-22.63 0l-16.43-16.431c6.81-8.239 14.39-15.819 22.63-22.629z" fill="#8caac8"/></g><g><path d="m240 88c5.4 0 10.73.25 16 .76v23.24c0 8.84-7.16 16-16 16s-16-7.16-16-16v-23.24c5.27-.51 10.6-.76 16-.76z" fill="#8caac8"/></g><g><path d="m369.57 149.06-16.43 16.431c-6.25 6.25-16.38 6.25-22.63 0s-6.25-16.38 0-22.63l16.43-16.43c8.24 6.809 15.82 14.389 22.63 22.629z" fill="#f04b37"/></g><g><path d="m408 256c0 5.4-.25 10.73-.76 16h-23.24c-8.84 0-16-7.16-16-16s7.16-16 16-16h23.24c.51 5.27.76 10.6.76 16z" fill="#f04b37"/></g><g><path d="m331.313 164.687c-6.248-6.248-16.379-6.248-22.627 0l-47.994 47.994c-6.265-2.999-13.282-4.681-20.692-4.681-26.51 0-48 21.49-48 48s21.49 48 48 48 48-21.49 48-48c0-7.41-1.682-14.427-4.68-20.692l47.994-47.994c6.249-6.249 6.249-16.379-.001-22.627zm-91.313 107.313c-8.836 0-16-7.163-16-16s7.164-16 16-16 16 7.163 16 16-7.164 16-16 16z" fill="#463c4b"/><circle cx="240" cy="256" fill="#5f7dbe" r="16"/></g><g fill="#d7e6f0"><path d="m208 356h-8c-3.075 0-5.875 1.172-8 3.081-2.125-1.909-4.925-3.081-8-3.081h-8c-6.617 0-12 5.383-12 12v40c0 2.209 1.791 4 4 4s4-1.791 4-4v-40c0-2.206 1.794-4 4-4h8c2.206 0 4 1.794 4 4v40c0 2.209 1.791 4 4 4s4-1.791 4-4v-40c0-2.206 1.794-4 4-4h8c2.206 0 4 1.794 4 4v40c0 2.209 1.791 4 4 4s4-1.791 4-4v-40c0-6.617-5.383-12-12-12z"/><path d="m256 356h-8c-6.617 0-12 5.383-12 12v40c0 2.209 1.791 4 4 4s4-1.791 4-4v-12h12c6.617 0 12-5.383 12-12v-16c0-6.617-5.383-12-12-12zm4 28c0 2.206-1.794 4-4 4h-12v-20c0-2.206 1.794-4 4-4h8c2.206 0 4 1.794 4 4z"/><path d="m312 356c-2.209 0-4 1.791-4 4v20h-16v-20c0-2.209-1.791-4-4-4s-4 1.791-4 4v48c0 2.209 1.791 4 4 4s4-1.791 4-4v-20h16v20c0 2.209 1.791 4 4 4s4-1.791 4-4v-48c0-2.209-1.791-4-4-4z"/></g></g></svg>