<svg xmlns="http://www.w3.org/2000/svg" version="1.1" xmlns:xlink="http://www.w3.org/1999/xlink" width="512" height="512" x="0" y="0" viewBox="0 0 512 512" style="enable-background:new 0 0 512 512" xml:space="preserve" class=""><g><linearGradient id="a" x1="447.075" x2="-4.718" y1="28.531" y2="480.323" gradientUnits="userSpaceOnUse"><stop stop-opacity="1" stop-color="#32de84" offset="0"></stop><stop stop-opacity="1" stop-color="#24a762" offset="0.401"></stop><stop stop-opacity="1" stop-color="#0a9c50" offset="1"></stop></linearGradient><path fill="url(#a)" d="M34.4 144.186h276.36a5 5 0 0 0 5-5V37.44a5 5 0 0 0-5-5H34.4a5 5 0 0 0-5 5v101.746a5 5 0 0 0 5 5zm5-101.746h266.36v91.746H39.4zm-5 156.223h50.78a5 5 0 0 0 5-5v-25.558a5 5 0 0 0-5-5H34.4a5 5 0 0 0-5 5v25.558a5 5 0 0 0 5 5zm5-25.558h40.78v15.558H39.4zm276.36 20.558v-25.558a5 5 0 0 0-5-5h-50.78a5 5 0 0 0-5 5v25.558a5 5 0 0 0 5 5h50.78a5 5 0 0 0 5-5zm-10-5h-40.78v-15.558h40.78zM191.09 235.14v-6.219a5 5 0 0 0-5-5h-27.02a5 5 0 0 0-5 5v6.22a97.178 97.178 0 0 0 0 190.8v4.139a5 5 0 0 0 5 5h27.02a5 5 0 0 0 5-5v-4.142a97.176 97.176 0 0 0 0-190.793zm-105.682 95.4a87.522 87.522 0 0 1 68.662-85.18v170.36a87.566 87.566 0 0 1-68.662-85.184zm95.682 94.539h-17.02V233.921h17.02zm10-9.357V245.355c39.486 8.581 68.662 44.3 68.662 85.181s-29.179 76.601-68.662 85.182zm-18.51-205.01a119.829 119.829 0 1 0 119.829 119.824A119.964 119.964 0 0 0 172.58 210.708zm0 229.657a109.829 109.829 0 1 1 109.829-109.833A109.953 109.953 0 0 1 172.58 440.365zm0-261.331a5 5 0 0 1 5 5v16.013a5 5 0 0 1-10 0v-16.017a5 5 0 0 1 5-5zM278.974 223.1a5 5 0 0 1 0 7.071L267.651 241.5a5 5 0 0 1-7.071-7.07l11.32-11.33a5 5 0 0 1 7.074 0zm44.069 106.4a5 5 0 0 1-5 5h-16.012a5 5 0 0 1 0-10h16.012a5 5 0 0 1 5 5zm-44.069 99.323a5 5 0 0 1-7.072 7.071l-11.322-11.325a5 5 0 1 1 7.071-7.07zM177.58 458.949v16.013a5 5 0 0 1-10 0v-16.013a5 5 0 0 1 10 0zm-93-41.45a5 5 0 0 1 0 7.07l-11.323 11.323a5 5 0 0 1-7.071-7.071L77.508 417.5a5 5 0 0 1 7.072 0zm-36.451-88a5 5 0 0 1-5 5H27.117a5 5 0 0 1 0-10h16.012a5 5 0 0 1 5 5.001zm36.451-95.072a5 5 0 1 1-7.072 7.07l-11.322-11.322a5 5 0 1 1 7.071-7.071zm421.983-60.49a5 5 0 0 0-4.277-2.411h-15.622v-55.683a5 5 0 0 0-5-5h-5.283V59.908a5 5 0 0 0-10 0v50.935H461.1a5 5 0 0 0-5 5v55.683h-15.623a5 5 0 0 0-4.431 7.319l10.924 20.876v161a5 5 0 0 0 5 5h14.411v81.947h-65.667v-81.944h14.411a5 5 0 0 0 5-5v-161l10.923-20.876a5 5 0 0 0-4.43-7.319H411v-55.686a5 5 0 0 0-5-5h-5.282V59.908a5 5 0 0 0-10 0v50.935h-5.283a5 5 0 0 0-5 5v55.683h-15.626a5 5 0 0 0-4.43 7.319l10.921 20.876v161a5 5 0 0 0 5 5h14.411v81.947h-50.265V26.214A26.244 26.244 0 0 0 314.231 0H30.929A26.244 26.244 0 0 0 4.714 26.214v452.7a26.244 26.244 0 0 0 26.215 26.214h283.3a26.244 26.244 0 0 0 26.215-26.214v-21.243h130.937a5 5 0 0 0 5-5v-86.947h14.411a5 5 0 0 0 5-5v-161l10.924-20.876a5 5 0 0 0-.153-4.911zm-116.132-53.094H401v50.683h-10.569zm27.928 60.683-6.259 11.965h-32.77l-6.261-11.965zM381.3 203.491h28.822v152.233H381.3zm-50.854 275.424a16.233 16.233 0 0 1-16.215 16.214H30.929a16.233 16.233 0 0 1-16.215-16.214V26.214A16.232 16.232 0 0 1 30.929 10h283.3a16.232 16.232 0 0 1 16.215 16.214zM466.1 120.843h10.565v50.683H466.1zm27.927 60.683-6.26 11.965H455l-6.261-11.965zm-8.234 174.2H456.97V203.491h28.822z" opacity="1" data-original="url(#a)" class=""></path></g></svg>