<svg id="Layer_1" enable-background="new 0 0 512 512" height="512" viewBox="0 0 512 512" width="512" xmlns="http://www.w3.org/2000/svg"><g><g><g><path d="m248 112h-64c-92.784 0-168 75.216-168 168 0 92.784 75.216 168 168 168h64c92.784 0 168-75.216 168-168 0-92.784-75.216-168-168-168z" fill="#463c4b"/></g><g><path d="m184 112c-92.784 0-168 75.216-168 168s75.216 168 168 168 168-75.216 168-168-75.216-168-168-168z" fill="#555a6e"/></g><g><path d="m40 288c-4.418 0-8-3.582-8-8 0-83.813 68.187-152 152-152 4.418 0 8 3.582 8 8s-3.582 8-8 8c-74.99 0-136 61.01-136 136 0 4.418-3.582 8-8 8z" fill="#6e788c"/></g><g><g><path d="m178.667 122.667c0 2.946 2.388 5.333 5.333 5.333s5.333-2.388 5.333-5.333v-10.574c-1.771-.055-3.548-.093-5.333-.093s-3.562.038-5.333.093z" fill="#463c4b"/></g><g><path d="m189.333 437.333c0-2.946-2.388-5.333-5.333-5.333s-5.333 2.388-5.333 5.333v10.574c1.772.055 3.548.093 5.333.093s3.562-.038 5.333-.093z" fill="#463c4b"/></g><g><path d="m269.935 135.625-4.058-2.343c-.838-.469-1.679-.935-2.526-1.389l-5.303 9.186c-1.473 2.551-.599 5.813 1.952 7.286s5.813.599 7.285-1.952l5.296-9.174c-.876-.546-1.758-1.085-2.646-1.614z" fill="#463c4b"/></g><g><path d="m109.952 418.921c1.473-2.551.599-5.813-1.952-7.286s-5.813-.599-7.285 1.952l-5.296 9.174c.876.545 1.757 1.083 2.644 1.611l4.062 2.346c.838.468 1.678.934 2.525 1.388z" fill="#463c4b"/></g><g><path d="m330.718 198.123-2.342-4.056c-.53-.889-1.069-1.771-1.615-2.649l-9.174 5.296c-2.551 1.473-3.425 4.735-1.952 7.286s4.734 3.425 7.286 1.952l9.186-5.303c-.455-.848-.92-1.688-1.389-2.526z" fill="#463c4b"/></g><g><path d="m50.412 363.286c2.551-1.473 3.425-4.735 1.952-7.286s-4.735-3.425-7.285-1.952l-9.186 5.303c.455.847.92 1.687 1.388 2.524l2.344 4.06c.53.888 1.068 1.77 1.613 2.646z" fill="#463c4b"/></g><g><path d="m341.333 274.667c-2.945 0-5.333 2.388-5.333 5.333s2.388 5.333 5.333 5.333h10.574c.055-1.772.093-3.548.093-5.333s-.037-3.562-.093-5.333z" fill="#463c4b"/></g><g><path d="m26.667 285.333c2.945 0 5.333-2.388 5.333-5.333s-2.388-5.333-5.333-5.333h-10.574c-.056 1.771-.093 3.548-.093 5.333s.037 3.562.093 5.333z" fill="#463c4b"/></g><g><path d="m322.921 354.048c-2.551-1.473-5.813-.599-7.286 1.952s-.599 5.813 1.952 7.286l9.174 5.296c.545-.877 1.083-1.759 1.613-2.646l2.344-4.06c.469-.838.934-1.678 1.388-2.524z" fill="#463c4b"/></g><g><path d="m37.282 198.123c-.469.838-.934 1.679-1.389 2.526l9.186 5.303c2.551 1.473 5.813.599 7.285-1.952s.599-5.813-1.952-7.286l-9.174-5.296c-.546.878-1.085 1.76-1.615 2.649z" fill="#463c4b"/></g><g><path d="m267.285 413.588c-1.473-2.551-4.735-3.425-7.285-1.952s-3.425 4.735-1.952 7.286l5.303 9.186c.847-.455 1.687-.92 2.525-1.388l4.062-2.346c.887-.529 1.768-1.066 2.644-1.611z" fill="#463c4b"/></g><g><path d="m100.715 146.412c1.473 2.551 4.735 3.425 7.285 1.952s3.425-4.735 1.952-7.286l-5.303-9.186c-.847.455-1.687.92-2.526 1.389l-4.058 2.343c-.888.529-1.77 1.068-2.647 1.613z" fill="#463c4b"/></g></g></g><g><g><circle cx="184" cy="280" fill="#d7e6f0" r="77.333"/></g><g><g><path d="m226.468 246.248-10.855 6.264c-4.831 2.788-10.735 2.603-15.558-.199-.059-.034-.117-.068-.176-.102-4.815-2.757-7.88-7.785-7.88-13.334v-12.533c0-5.313 5.1-9.205 10.195-7.699 9.813 2.9 18.642 8.088 25.87 14.953 3.842 3.648 2.993 10.002-1.596 12.65z" fill="#8caac8"/></g><g><path d="m152 280v.103c.009 5.647-3 10.869-7.891 13.693l-10.595 6.118c-4.586 2.648-10.514.21-11.75-4.94-1.153-4.805-1.764-9.819-1.764-14.974s.611-10.169 1.764-14.974c1.236-5.15 7.164-7.588 11.75-4.94l10.595 6.118c4.891 2.824 7.9 8.046 7.891 13.693z" fill="#8caac8"/></g><g><path d="m248 280c0 5.155-.611 10.169-1.764 14.974-1.236 5.15-7.164 7.588-11.75 4.94l-10.595-6.118c-4.891-2.824-7.9-8.046-7.891-13.693v-.103-.103c-.009-5.647 3-10.869 7.891-13.693l10.595-6.118c4.586-2.648 10.514-.21 11.75 4.94 1.153 4.805 1.764 9.819 1.764 14.974z" fill="#8caac8"/></g><g><path d="m176 321.123v12.533c0 5.313-5.1 9.205-10.195 7.699-9.813-2.9-18.642-8.088-25.87-14.953-3.841-3.648-2.992-10.001 1.596-12.649l10.855-6.264c4.831-2.788 10.735-2.603 15.558.199.059.034.117.068.176.102 4.816 2.756 7.88 7.784 7.88 13.333z" fill="#8caac8"/></g><g><path d="m176 226.344v12.533c0 5.549-3.064 10.577-7.88 13.334-.059.034-.118.068-.176.102-4.823 2.802-10.727 2.986-15.558.199l-10.855-6.264c-4.589-2.648-5.438-9.001-1.596-12.649 7.229-6.865 16.058-12.053 25.87-14.953 5.095-1.507 10.195 2.386 10.195 7.698z" fill="#8caac8"/></g><g><path d="m228.065 326.402c-7.229 6.865-16.058 12.053-25.87 14.953-5.095 1.506-10.195-2.387-10.195-7.699v-12.533c0-5.549 3.064-10.577 7.88-13.334.059-.034.118-.068.176-.102 4.823-2.802 10.727-2.986 15.558-.199l10.855 6.264c4.588 2.648 5.437 9.002 1.596 12.65z" fill="#8caac8"/></g><g><circle cx="184" cy="280" fill="#8caac8" r="16"/></g><g><circle cx="184" cy="252" fill="#8caac8" r="4"/></g><g><circle cx="184" cy="308" fill="#8caac8" r="4"/></g><g><circle cx="159.751" cy="266" fill="#8caac8" r="4"/></g><g><circle cx="208.249" cy="294" fill="#8caac8" r="4"/></g><g><circle cx="159.751" cy="294" fill="#8caac8" r="4"/></g><g><circle cx="208.249" cy="266" fill="#8caac8" r="4"/></g></g></g><g><path d="m384 152h64v296h-64z" fill="#f04b37"/></g><g><path d="m416 152h32v296h-32z" fill="#d73228"/></g><g><path d="m456 448h-80v-24c0-4.418 3.582-8 8-8h64c4.418 0 8 3.582 8 8z" fill="#463c4b"/></g><g><path d="m488 448h-144c-4.418 0-8-3.582-8-8 0-4.418 3.582-8 8-8h144c4.418 0 8 3.582 8 8 0 4.418-3.582 8-8 8z" fill="#463c4b"/></g><g><path d="m416 432h-40v-8c0-4.418 3.582-8 8-8h32z" fill="#555a6e"/></g><g><path d="m448 152h-64c-4.418 0-8-3.582-8-8v-16c0-4.418 3.582-8 8-8h64c4.418 0 8 3.582 8 8v16c0 4.418-3.582 8-8 8z" fill="#463c4b"/></g><g><path d="m408 152h-24c-4.418 0-8-3.582-8-8v-16c0-4.418 3.582-8 8-8h24c4.418 0 8 3.582 8 8v16c0 4.418-3.582 8-8 8z" fill="#555a6e"/></g><g><path d="m400 96h32v24h-32z" fill="#8caac8"/></g><g><path d="m480 96h-128c-4.418 0-8-3.582-8-8v-16c0-4.418 3.582-8 8-8h128c4.418 0 8 3.582 8 8v16c0 4.418-3.582 8-8 8z" fill="#463c4b"/></g><g><path d="m488 80h-144v-8c0-4.418 3.582-8 8-8h128c4.418 0 8 3.582 8 8z" fill="#555a6e"/></g><g><path d="m392 152h8v264h-8z" fill="#ff6955"/></g><path d="m306 280h-60c-38.598 0-70 31.402-70 70v18h16v-18c0-29.775 24.225-54 54-54h60c29.775 0 54 24.225 54 54v82h16v-82c0-38.598-31.402-70-70-70z" fill="#5f7dbe"/><g><path d="m192 368h-16c-4.418 0-8-3.582-8-8 0-4.418 3.582-8 8-8h16c4.418 0 8 3.582 8 8 0 4.418-3.582 8-8 8z" fill="#f04b37"/></g></g></svg>