<?xml version="1.0" encoding="UTF-8" standalone="no"?>
<!-- Created with Inkscape (http://www.inkscape.org/) by Marsupilami -->
<svg
   xmlns:svg="http://www.w3.org/2000/svg"
   xmlns="http://www.w3.org/2000/svg"
   version="1.0"
   width="1024"
   height="269"
   viewBox="0 0 135.87563 35.727501"
   id="svg5536">
  <defs
     id="defs5538" />
  <g
     transform="translate(-272.06219,-477.35558)"
     id="layer1">
    <path
       d="M 407.93781,513.08308 L 272.06219,513.08308 L 272.06219,477.35558 L 407.93781,477.35558"
       style="fill:#d9332b;fill-opacity:1;fill-rule:evenodd;stroke:none"
       id="path4528" />
    <path
       d="M 50.53125,5.5625 C 45.703401,5.7199916 41.195548,8.6441746 39.15625,13.15625 C 37.35162,17.46025 38.045501,23.04287 41.5625,26.375 C 45.54238,30.30837 52.299131,31.43788 57.34375,29.03125 C 61.4625,27.13375 64.407501,22.894 64.5,18.3125 C 64.5465,16.97025 64.570499,15.56313 63.96875,14.40625 L 58.6875,7.625 L 57.8125,6.9375 C 55.915,6.012 53.721251,5.65538 51.5,5.5625 C 51.176055,5.5480394 50.853107,5.5520006 50.53125,5.5625 z M 12.53125,6.0625 L 5.59375,29.75 L 14.0625,29.75 L 16.75,19.3125 L 18.3125,29.75 L 23.84375,29.75 L 28.3125,19.4375 L 27.875,29.75 L 36.15625,29.75 L 36.15625,6.0625 L 26.9375,6.0625 L 22.90625,15.6875 L 21.53125,6.0625 L 12.53125,6.0625 z M 60.71875,6.0625 L 66.46875,13.59375 L 69.84375,13.46875 L 67.8125,29.75 L 76.78125,29.75 L 78.71875,13.40625 L 82.4375,13.59375 L 83.21875,6.0625 L 60.71875,6.0625 z M 85.0625,6.0625 L 83.3125,20.875 C 83.3125,22.12475 83.224753,23.451621 83.6875,24.5625 C 84.6595,27.66325 88.102,29.663501 91.15625,30.21875 C 94.99762,30.728 98.929252,30.394001 101.9375,28.21875 C 103.97387,26.73762 105.05238,24.56413 105.46875,22.25 L 107.3125,6.0625 L 98.71875,6.0625 L 96.71875,20.6875 C 96.57987,21.38163 96.414121,22.037249 95.8125,22.5 C 95.21087,23.14812 94.176872,23.24613 93.34375,22.96875 C 92.55687,22.552 92.141128,21.660381 92.1875,20.78125 L 93.90625,6.0625 L 85.0625,6.0625 z M 109.71875,6.0625 L 106.625,29.75 L 121.625,29.75 L 123.71875,22.25 L 116.65625,22.25 L 118.65625,6.0625 L 109.71875,6.0625 z M 51.6875,13.375 C 51.92035,13.369754 52.137812,13.377328 52.375,13.40625 C 53.48538,13.63762 54.709619,14.45175 55.21875,15.5625 C 56.00537,17.04362 55.94038,19.236751 54.96875,20.625 C 54.04288,22.10612 52.539748,22.95137 50.78125,22.8125 C 49.43938,22.67362 48.164131,21.828251 47.5625,20.625 C 46.68338,19.14425 46.885749,17.216 47.71875,15.78125 C 48.569136,14.283145 50.057547,13.411721 51.6875,13.375 z "
       transform="translate(272.06219,477.35558)"
       style="fill:#ffffff;fill-opacity:1;fill-rule:evenodd;stroke:none"
       id="path4530" />
  </g>
</svg>
